<svg width="79" height="29" viewBox="0 0 79 29" fill="none" xmlns="http://www.w3.org/2000/svg">
<rect x="3.5" y="0.5" width="21" height="21" rx="5.5" stroke="white"/>
<rect x="54.5" y="0.5" width="21" height="21" rx="5.5" stroke="white"/>
<path d="M13.2009 0.5H14.7991C17.4679 0.5 19.4208 0.501 20.9246 0.697514C22.4141 0.892165 23.3939 1.27135 24.1525 1.97935C24.911 2.68735 25.3567 3.63874 25.6533 5.11136C25.9529 6.59809 26.0882 8.5463 26.2718 11.2088L26.6167 16.2088C26.8249 19.228 26.9764 21.4408 26.8605 23.1389C26.7456 24.8226 26.3716 25.9183 25.5926 26.7529C24.8136 27.5875 23.7462 28.036 22.0744 28.2664C20.3883 28.4989 18.1703 28.5 15.1439 28.5H12.8561C9.82972 28.5 7.61172 28.4989 5.92559 28.2664C4.25377 28.036 3.18641 27.5875 2.40739 26.7529C1.62838 25.9183 1.2544 24.8226 1.13951 23.1389C1.02364 21.4408 1.17512 19.228 1.38334 16.2088L1.72817 11.2088C1.91179 8.54629 2.04715 6.59808 2.34666 5.11136C2.64334 3.63874 3.08904 2.68735 3.84754 1.97935C4.60605 1.27135 5.58585 0.892165 7.0754 0.697514C8.57921 0.501 10.5321 0.5 13.2009 0.5Z" stroke="white"/>
<path d="M64.2009 0.5H65.7991C68.4679 0.5 70.4208 0.501 71.9246 0.697514C73.4141 0.892165 74.3939 1.27135 75.1525 1.97935C75.911 2.68735 76.3567 3.63874 76.6533 5.11136C76.9529 6.59809 77.0882 8.5463 77.2718 11.2088L77.6167 16.2088C77.8249 19.228 77.9764 21.4408 77.8605 23.1389C77.7456 24.8226 77.3716 25.9183 76.5926 26.7529C75.8136 27.5875 74.7462 28.036 73.0744 28.2664C71.3883 28.4989 69.1703 28.5 66.1439 28.5H63.8561C60.8297 28.5 58.6117 28.4989 56.9256 28.2664C55.2538 28.036 54.1864 27.5875 53.4074 26.7529C52.6284 25.9183 52.2544 24.8226 52.1395 23.1389C52.0236 21.4408 52.1751 19.228 52.3833 16.2088L52.7282 11.2088C52.9118 8.54629 53.0471 6.59808 53.3467 5.11136C53.6433 3.63874 54.089 2.68735 54.8475 1.97935C55.6061 1.27135 56.5859 0.892165 58.0754 0.697514C59.5792 0.501 61.5321 0.5 64.2009 0.5Z" stroke="white"/>
<path d="M9.64645 10.6464C9.45118 10.8417 9.45118 11.1583 9.64645 11.3536L12.8284 14.5355C13.0237 14.7308 13.3403 14.7308 13.5355 14.5355C13.7308 14.3403 13.7308 14.0237 13.5355 13.8284L10.7071 11L13.5355 8.17157C13.7308 7.97631 13.7308 7.65973 13.5355 7.46447C13.3403 7.2692 13.0237 7.2692 12.8284 7.46447L9.64645 10.6464ZM18 10.5H10V11.5H18V10.5Z" fill="white"/>
<path d="M69.3536 11.3536C69.5488 11.1583 69.5488 10.8417 69.3536 10.6464L66.1716 7.46447C65.9763 7.2692 65.6597 7.2692 65.4645 7.46447C65.2692 7.65973 65.2692 7.97631 65.4645 8.17157L68.2929 11L65.4645 13.8284C65.2692 14.0237 65.2692 14.3403 65.4645 14.5355C65.6597 14.7308 65.9763 14.7308 66.1716 14.5355L69.3536 11.3536ZM61 11.5L69 11.5L69 10.5L61 10.5L61 11.5Z" fill="white"/>
</svg>
