<svg width="178" height="30" viewBox="0 0 178 30" fill="none" xmlns="http://www.w3.org/2000/svg">
<path d="M9.2 8H53.8C58.3287 8 62 11.6713 62 16.2C62 20.7287 58.3287 24.4 53.8 24.4H31.5H15.75H7.47346C5.02209 24.4 2.71549 25.3566 1 26.995V16.2C1 11.6713 4.67126 8 9.2 8Z" stroke="white" stroke-width="2"/>
<path d="M69 6.83433H72.054L72.5362 8.77774H72.6648C73.2221 7.95719 73.8757 7.35257 74.6258 6.96389C75.3974 6.57521 76.3297 6.38087 77.4227 6.38087C79.4373 6.38087 80.9482 7.02867 81.9555 8.32428C82.9628 9.59829 83.4664 11.6605 83.4664 14.5108C83.4664 15.8928 83.3057 17.1452 82.9842 18.2681C82.6627 19.3693 82.1805 20.3087 81.5376 21.086C80.9161 21.8634 80.1445 22.4572 79.223 22.8675C78.3228 23.2778 77.2834 23.4829 76.1046 23.4829C75.4402 23.4829 74.8937 23.4289 74.4651 23.3209C74.0365 23.2346 73.6078 23.0834 73.1792 22.8675V29.5075H69V6.83433ZM76.1689 9.94379C75.3545 9.94379 74.7116 10.1489 74.2401 10.5592C73.79 10.9695 73.4364 11.5849 73.1792 12.4054V19.1426C73.4792 19.3801 73.8007 19.5745 74.1436 19.7256C74.508 19.8552 74.9795 19.92 75.5581 19.92C76.7583 19.92 77.6584 19.4989 78.2585 18.6568C78.8586 17.793 79.1587 16.3786 79.1587 14.4136C79.1587 12.9885 78.9229 11.8872 78.4514 11.1098C77.9799 10.3325 77.2191 9.94379 76.1689 9.94379Z" fill="white"/>
<path d="M95.2337 10.7859C94.5693 10.5484 93.9693 10.4296 93.4335 10.4296C92.6834 10.4296 92.0511 10.6348 91.5368 11.0451C91.0438 11.4337 90.7116 11.9412 90.5402 12.5674V23.0294H86.361V6.83433H89.6079L90.0901 8.97208H90.2187C90.583 8.17313 91.076 7.55771 91.6975 7.12584C92.319 6.69397 93.0477 6.47804 93.8835 6.47804C94.4408 6.47804 95.073 6.5968 95.7802 6.83433L95.2337 10.7859Z" fill="white"/>
<path d="M96.8599 14.9319C96.8599 12.1895 97.5243 10.0841 98.8531 8.61579C100.182 7.12584 102.046 6.38087 104.447 6.38087C105.733 6.38087 106.847 6.58601 107.79 6.99628C108.733 7.40656 109.515 7.98958 110.137 8.74535C110.758 9.47953 111.219 10.3757 111.519 11.4337C111.841 12.4918 112.001 13.6579 112.001 14.9319C112.001 17.6743 111.337 19.7904 110.008 21.2804C108.701 22.7487 106.847 23.4829 104.447 23.4829C103.161 23.4829 102.046 23.2778 101.103 22.8675C100.16 22.4572 99.3675 21.885 98.7245 21.1508C98.103 20.395 97.6315 19.4881 97.31 18.43C97.01 17.3719 96.8599 16.2059 96.8599 14.9319ZM101.168 14.9319C101.168 15.6445 101.232 16.3031 101.361 16.9077C101.489 17.5123 101.682 18.0413 101.939 18.4948C102.196 18.9483 102.529 19.3046 102.936 19.5637C103.364 19.8012 103.868 19.92 104.447 19.92C105.54 19.92 106.354 19.5205 106.89 18.7215C107.426 17.9226 107.694 16.6594 107.694 14.9319C107.694 13.4419 107.447 12.2435 106.954 11.3366C106.461 10.408 105.626 9.94379 104.447 9.94379C103.418 9.94379 102.614 10.3325 102.036 11.1098C101.457 11.8872 101.168 13.1612 101.168 14.9319Z" fill="white"/>
<path d="M128.883 6.83433V23.0294H124.703V10.3973H119.849V23.0294H115.67V10.3973H113.452V6.83433H115.67V5.92741C115.67 3.87603 116.195 2.38608 117.245 1.45756C118.295 0.507446 119.817 0.0323898 121.81 0.0323898C123.289 0.0323898 124.596 0.151154 125.732 0.388681C126.889 0.604617 127.822 0.917723 128.529 1.328L127.436 4.59941C126.879 4.2971 126.204 4.05957 125.411 3.88682C124.618 3.69248 123.739 3.59531 122.774 3.59531C122.153 3.59531 121.649 3.67089 121.264 3.82204C120.878 3.9516 120.578 4.15674 120.363 4.43746C120.149 4.69658 120.01 5.03128 119.945 5.44155C119.881 5.85183 119.849 6.31609 119.849 6.83433H128.883Z" fill="white"/>
<path d="M139.322 18.5596C139.322 18.1277 139.14 17.7822 138.775 17.5231C138.411 17.264 137.961 17.0264 137.425 16.8105C136.889 16.5946 136.3 16.3786 135.657 16.1627C135.014 15.9252 134.425 15.6121 133.889 15.2234C133.353 14.8131 132.903 14.3057 132.539 13.7011C132.174 13.0748 131.992 12.2759 131.992 11.3042C131.992 9.70626 132.464 8.48623 133.407 7.64409C134.35 6.80194 135.711 6.38087 137.49 6.38087C138.711 6.38087 139.815 6.51043 140.801 6.76955C141.787 7.02867 142.558 7.32018 143.115 7.64409L142.183 10.6888C141.69 10.4944 141.069 10.2893 140.319 10.0734C139.568 9.85742 138.808 9.74945 138.036 9.74945C136.793 9.74945 136.171 10.2353 136.171 11.207C136.171 11.5957 136.354 11.9088 136.718 12.1463C137.082 12.3839 137.532 12.6106 138.068 12.8265C138.604 13.0209 139.193 13.2368 139.836 13.4743C140.479 13.7119 141.069 14.025 141.604 14.4136C142.14 14.7807 142.59 15.2666 142.955 15.8712C143.319 16.4758 143.501 17.2532 143.501 18.2033C143.501 19.8444 142.976 21.14 141.926 22.0901C140.897 23.0186 139.343 23.4829 137.265 23.4829C136.129 23.4829 135.057 23.3317 134.05 23.0294C133.064 22.7487 132.26 22.414 131.639 22.0253L132.796 18.8835C133.289 19.1642 133.943 19.4449 134.757 19.7256C135.571 19.9848 136.407 20.1143 137.265 20.1143C137.886 20.1143 138.379 19.9955 138.743 19.758C139.129 19.5205 139.322 19.121 139.322 18.5596Z" fill="white"/>
<path d="M146.583 6.83433H150.762V23.0294H146.583V6.83433ZM145.972 2.26731C145.972 1.6411 146.198 1.11206 146.648 0.680193C147.119 0.226731 147.762 0 148.576 0C149.391 0 150.045 0.226731 150.537 0.680193C151.052 1.11206 151.309 1.6411 151.309 2.26731C151.309 2.89352 151.052 3.42256 150.537 3.85443C150.045 4.26471 149.391 4.46985 148.576 4.46985C147.762 4.46985 147.119 4.26471 146.648 3.85443C146.198 3.42256 145.972 2.89352 145.972 2.26731Z" fill="white"/>
<path d="M163.993 23.0294V14.2193C163.993 12.7293 163.854 11.6713 163.575 11.0451C163.296 10.4188 162.718 10.1057 161.839 10.1057C161.11 10.1057 160.521 10.3109 160.071 10.7212C159.621 11.1098 159.278 11.6173 159.042 12.2435V23.0294H154.863V6.83433H158.11L158.592 8.97208H158.721C159.214 8.28109 159.835 7.67648 160.585 7.15823C161.357 6.63999 162.343 6.38087 163.543 6.38087C164.572 6.38087 165.408 6.5968 166.05 7.02867C166.715 7.43895 167.229 8.14074 167.594 9.13403C168.086 8.29189 168.719 7.62249 169.49 7.12584C170.262 6.62919 171.194 6.38087 172.287 6.38087C173.187 6.38087 173.948 6.48884 174.57 6.70477C175.213 6.9207 175.727 7.29859 176.113 7.83843C176.52 8.35667 176.82 9.05846 177.013 9.94379C177.206 10.8291 177.302 11.952 177.302 13.3124V23.0294H173.123V13.9278C173.123 12.6538 172.984 11.7037 172.705 11.0774C172.448 10.4296 171.858 10.1057 170.937 10.1057C170.187 10.1057 169.587 10.3109 169.137 10.7212C168.708 11.1314 168.387 11.6929 168.172 12.4054V23.0294H163.993Z" fill="white"/>
</svg>
