<?xml version="1.0" encoding="utf-8"?>
<!-- Generator: Adobe Illustrator 26.0.3, SVG Export Plug-In . SVG Version: 6.00 Build 0)  -->
<svg version="1.1" id="Слой_1" xmlns="http://www.w3.org/2000/svg" xmlns:xlink="http://www.w3.org/1999/xlink" x="0px" y="0px"
	 viewBox="0 0 156.1 77.8" style="enable-background:new 0 0 156.1 77.8;" xml:space="preserve">
<style type="text/css">
	.st0{fill:#FFFFFF;}
	.st1{font-family:'Geometria';}
	.st2{font-size:7px;}
	.st3{clip-path:url(#SVGID_00000006683936904930308810000010732316580799451066_);}
	.st4{fill:#1D3663;}
	.st5{fill:none;stroke:#FFFFFF;stroke-width:0.5;stroke-miterlimit:10;}
	.st6{fill:none;stroke:#FFFFFF;stroke-width:0.5;stroke-linejoin:round;}
	.st7{fill:#666D92;}
	.st8{fill:none;stroke:#FFFFFF;stroke-width:0.5;stroke-linecap:round;stroke-linejoin:round;}
	.st9{fill:#4AC0B2;}
	.st10{fill:#000F39;}
</style>
<text transform="matrix(1 0 0 1 21.305 10.222)" class="st0 st1 st2">Зары</text>
<text transform="matrix(1 0 0 1 39.351 10.222)" class="st0 st1 st2">б</text>
<text transform="matrix(1 0 0 1 43.578 10.222)" class="st0 st1 st2">ленные фермы</text>
<text transform="matrix(1 0 0 1 21.305 31.153)" class="st0 st1 st2">У</text>
<text transform="matrix(1 0 0 1 25.358 31.153)" class="st0 st1 st2">ча</text>
<text transform="matrix(1 0 0 1 33.331 31.153)" class="st0 st1 st2">с</text>
<text transform="matrix(1 0 0 1 36.887 31.153)" class="st0 st1 st2">твовавшие</text>
<text transform="matrix(1 0 0 1 76.066 31.153)" class="st0 st1 st2">в</text>
<text transform="matrix(1 0 0 1 81.813 31.153)" class="st0 st1 st2">зары</text>
<text transform="matrix(1 0 0 1 98.893 31.153)" class="st0 st1 st2">б</text>
<text transform="matrix(1 0 0 1 103.051 31.153)" class="st0 st1 st2">лении ферм</text>
<text transform="matrix(1 0 0 1 143.811 31.153)" class="st0 st1 st2">ы</text>
<text transform="matrix(1 0 0 1 21.305 52.082)" class="st0 st1 st2">И</text>
<text transform="matrix(1 0 0 1 26.695 52.082)" class="st0 st1 st2">сс</text>
<text transform="matrix(1 0 0 1 33.905 52.082)" class="st0 st1 st2">лед</text>
<text transform="matrix(1 0 0 1 46.638 52.082)" class="st0 st1 st2">у</text>
<text transform="matrix(1 0 0 1 50.431 52.082)" class="st0 st1 st2">емые фермы</text>
<text transform="matrix(1 0 0 1 21.305 73.012)" class="st0 st1 st2">У</text>
<text transform="matrix(1 0 0 1 25.428 73.012)" class="st0 st1 st2">ча</text>
<text transform="matrix(1 0 0 1 33.527 73.012)" class="st0 st1 st2">с</text>
<text transform="matrix(1 0 0 1 37.153 73.012)" class="st0 st1 st2">тки</text>
<text transform="matrix(1 0 0 1 50.425 73.012)" class="st0 st1 st2">п</text>
<text transform="matrix(1 0 0 1 54.653 73.012)" class="st0 st1 st2">о</text>
<text transform="matrix(1 0 0 1 58.881 73.012)" class="st0 st1 st2">д</text>
<text transform="matrix(1 0 0 1 65.265 73.012)" class="st0 st1 st2">мидии</text>
<g>
	<defs>
		<rect id="SVGID_1_" y="0" width="156.1" height="77.8"/>
	</defs>
	<clipPath id="SVGID_00000122000889103904143450000011801449377645368710_">
		<use xlink:href="#SVGID_1_"  style="overflow:visible;"/>
	</clipPath>
	<g style="clip-path:url(#SVGID_00000122000889103904143450000011801449377645368710_);">
		<path class="st4" d="M7.5,14.8c-4,0-7.3-3.2-7.3-7.3s3.2-7.3,7.3-7.3s7.3,3.2,7.3,7.3S11.5,14.8,7.5,14.8L7.5,14.8"/>
		<circle class="st5" cx="7.5" cy="7.5" r="7.3"/>
		<path class="st6" d="M7.1,9.4c-0.8,0.1-1.6,0.4-2.3,0.8c-0.2,0-0.4-0.4-0.9-0.6c-0.1,0-0.1,0-0.2,0.1c0,0,0,0.1,0,0.1
			C3.8,10,4,10.6,4,10.6s-0.2,0.6-0.3,0.8c0,0.1,0,0.1,0.1,0.2c0,0,0.1,0,0.1,0C4.3,11.3,4.5,11,4.8,11c0.7,0.4,1.5,0.7,2.3,0.8
			c1.1-0.1,2.1-0.5,2.9-1.2C9.1,9.9,8.1,9.5,7.1,9.4z M9.6,6.7C8.8,6.8,8,7.1,7.3,7.5C7,7.5,6.8,7.1,6.4,6.9c-0.1,0-0.1,0-0.2,0.1
			c0,0,0,0.1,0,0.1c0.1,0.2,0.3,0.8,0.3,0.8S6.3,8.5,6.2,8.7c0,0.1,0,0.1,0.1,0.2c0,0,0.1,0,0.1,0C6.8,8.6,7,8.3,7.3,8.3
			C8,8.7,8.8,8.9,9.6,9c1.1-0.1,2.1-0.5,2.9-1.2C11.7,7.2,10.6,6.8,9.6,6.7L9.6,6.7z M7.7,3.8C6.8,3.9,6.1,4.2,5.3,4.6
			C5.1,4.6,4.9,4.2,4.5,4C4.4,4,4.3,4,4.3,4.1c0,0,0,0.1,0,0.1C4.4,4.4,4.6,5,4.6,5S4.4,5.6,4.3,5.8c0,0.1,0,0.1,0.1,0.2
			c0,0,0.1,0,0.1,0c0.5-0.2,0.7-0.6,0.9-0.6C6.1,5.8,6.8,6,7.7,6.1C8.7,6.1,9.7,5.7,10.5,5C9.7,4.3,8.7,3.9,7.7,3.8z"/>
		<path class="st7" d="M7.5,35.7c-4,0-7.3-3.2-7.3-7.3s3.2-7.3,7.3-7.3s7.3,3.2,7.3,7.3S11.5,35.7,7.5,35.7L7.5,35.7"/>
		<circle class="st5" cx="7.5" cy="28.4" r="7.3"/>
		<path class="st8" d="M12.2,29.9c-0.4,0.9-1.5,1.2-2.3,0.8c-0.3-0.2-0.6-0.4-0.8-0.8c-0.4,0.9-1.5,1.2-2.3,0.8
			c-0.3-0.2-0.6-0.4-0.8-0.8c-0.4,0.9-1.5,1.2-2.3,0.8c-0.4-0.2-0.7-0.5-0.8-0.9 M12.2,26.1c-0.4,0.9-1.5,1.2-2.3,0.8
			c-0.3-0.2-0.6-0.4-0.8-0.8c-0.4,0.9-1.5,1.2-2.3,0.8c-0.3-0.2-0.6-0.4-0.8-0.8c-0.4,0.9-1.5,1.2-2.3,0.8C3.3,26.7,3,26.4,2.8,26
			 M12.2,28c-0.4,0.9-1.5,1.2-2.3,0.8c-0.3-0.2-0.6-0.4-0.8-0.8c-0.4,0.9-1.5,1.2-2.3,0.8C6.4,28.6,6.1,28.3,6,28
			c-0.4,0.9-1.5,1.2-2.3,0.8c-0.4-0.2-0.7-0.5-0.8-0.9"/>
		<path class="st9" d="M7.5,56.6c-4,0-7.3-3.2-7.3-7.3s3.2-7.3,7.3-7.3s7.3,3.2,7.3,7.3S11.5,56.6,7.5,56.6L7.5,56.6"/>
		<circle class="st5" cx="7.5" cy="49.4" r="7.3"/>
		<circle class="st6" cx="9.1" cy="48.1" r="2.9"/>
		<path class="st8" d="M9.5,46c0.8,0.2,1.5,0.8,1.7,1.6"/>
		<path class="st6" d="M7.1,50.3l-0.4,0.4 M6.7,51.3l-2.1,2.1c-0.2,0.2-0.5,0.2-0.6,0c-0.2-0.2-0.2-0.4,0-0.6L6,50.7
			c0.2-0.2,0.5-0.2,0.6,0C6.9,50.9,6.9,51.2,6.7,51.3L6.7,51.3z"/>
		<path class="st10" d="M7.5,77.6c-4,0-7.3-3.2-7.3-7.3c0-4,3.2-7.3,7.3-7.3s7.3,3.2,7.3,7.3l0,0C14.8,74.3,11.5,77.6,7.5,77.6"/>
		<circle class="st5" cx="7.5" cy="70.3" r="7.3"/>
		<path class="st8" d="M12.1,67.7c-0.4,0.7-1,1.4-1.6,2c-1,0.9-1.9,1.2-2.9,0.7s-0.8-2.1,0.2-2.9c0.6-0.5,1.2-0.9,1.9-1.2
			c0.1-0.1,0.3-0.2,0.5-0.3 M12,69.1c-0.4,0.4-0.8,0.9-1.3,1.3c-1.5,1.4-2.9,2-4.4,1.3s-1.1-3.2,0.4-4.4c0.1-0.1,0.1-0.1,0.2-0.2
			 M11.3,71c-0.2,0.2-0.5,0.5-0.7,0.7c-1.5,1.4-3.4,2.3-5.2,1.2C4,72,3.6,70,4.6,68.6c0.2-0.3,0.4-0.5,0.6-0.7
			c0.1-0.1,0.3-0.2,0.4-0.3 M11.7,66.3c0.4,0.4,0.4,1.4,0.4,1.4c0.1,2-0.6,3.8-2.9,5.9C7.8,75,5.5,75,4.1,73.6
			c-1.4-1.4-1.5-3.9-0.6-4.8c0.9-0.7,2-1.3,3.1-1.6C8,66.7,10.7,65.3,11.7,66.3z"/>
	</g>
</g>
</svg>
