<?xml version="1.0" encoding="utf-8"?>
<!-- Generator: Adobe Illustrator 26.0.3, SVG Export Plug-In . SVG Version: 6.00 Build 0)  -->
<svg version="1.1" id="Слой_1" xmlns="http://www.w3.org/2000/svg" xmlns:xlink="http://www.w3.org/1999/xlink" x="0px" y="0px"
	 width="244.8px" height="266.4px" viewBox="0 0 244.8 266.4" style="enable-background:new 0 0 244.8 266.4;" xml:space="preserve"
	>
<style type="text/css">
	.st0{fill:#FFFFFF;}
	.st1{font-family:'Geometria-Bold';}
	.st2{font-size:12px;}
	.st3{fill:#53BBB1;}
	.st4{font-size:10px;}
	.st5{font-family:'Geometria-Light';}
	.st6{clip-path:url(#SVGID_00000039831553931308334830000002391032062420477841_);}
	.st7{clip-path:url(#SVGID_00000086670344906960314880000004894566559661753278_);}
</style>
<text transform="matrix(1 0 0 1 9 16.324)" class="st0 st1 st2">Диверсифицированный п</text>
<text transform="matrix(1 0 0 1 165.911 16.324)" class="st0 st1 st2">о</text>
<text transform="matrix(1 0 0 1 173.267 16.324)" class="st0 st1 st2">д</text>
<text transform="matrix(1 0 0 1 181.378 16.324)" class="st0 st1 st2">х</text>
<text transform="matrix(1 0 0 1 188.183 16.324)" class="st0 st1 st2">о</text>
<text transform="matrix(1 0 0 1 195.55 16.324)" class="st0 st1 st2">д</text>
<text transform="matrix(1 0 0 1 9 30.328)" class="st0 st1 st2">к зары</text>
<text transform="matrix(1 0 0 1 50.028 30.328)" class="st0 st1 st2">б</text>
<text transform="matrix(1 0 0 1 57.228 30.328)" class="st0 st1 st2">лению и выло</text>
<text transform="matrix(1 0 0 1 142.175 30.328)" class="st0 st1 st2">в</text>
<text transform="matrix(1 0 0 1 148.955 30.328)" class="st0 st1 st2">у</text>
<text transform="matrix(1 0 0 1 28.893 64.943)" class="st3 st1 st4">К</text>
<text transform="matrix(1 0 0 1 36.243 64.943)" class="st3 st1 st4">Л</text>
<text transform="matrix(1 0 0 1 43.653 64.943)" class="st3 st1 st4">А</text>
<text transform="matrix(1 0 0 1 50.963 64.943)" class="st3 st1 st4">СТ</text>
<text transform="matrix(1 0 0 1 64.402 64.943)" class="st3 st1 st4">ЕРН</text>
<text transform="matrix(1 0 0 1 85.243 64.943)" class="st3 st1 st4">А</text>
<text transform="matrix(1 0 0 1 93.042 64.943)" class="st3 st1 st4">Я </text>
<text transform="matrix(1 0 0 1 103.032 64.943)" class="st3 st1 st4">С</text>
<text transform="matrix(1 0 0 1 109.902 64.943)" class="st3 st1 st4">И</text>
<text transform="matrix(1 0 0 1 117.612 64.943)" class="st3 st1 st4">СТ</text>
<text transform="matrix(1 0 0 1 131.052 64.943)" class="st3 st1 st4">ЕМ</text>
<text transform="matrix(1 0 0 1 146.092 64.943)" class="st3 st1 st4">А</text>
<text transform="matrix(1 0 0 1 28.893 78.943)" class="st3 st1 st4">З</text>
<text transform="matrix(1 0 0 1 35.113 78.943)" class="st3 st1 st4">А</text>
<text transform="matrix(1 0 0 1 42.913 78.943)" class="st3 st1 st4">РЫБЛЕНИ</text>
<text transform="matrix(1 0 0 1 95.203 78.943)" class="st3 st1 st4">Я</text>
<text transform="matrix(1 0 0 1 28.842 96.614)" class="st0 st5 st4">сн</text>
<text transform="matrix(1 0 0 1 40.042 96.614)" class="st0 st5 st4">и</text>
<text transform="matrix(1 0 0 1 46.082 96.614)" class="st0 st5 st4">ж</text>
<text transform="matrix(1 0 0 1 53.062 96.614)" class="st0 st5 st4">а</text>
<text transform="matrix(1 0 0 1 58.911 96.614)" class="st0 st5 st4">е</text>
<text transform="matrix(1 0 0 1 64.371 96.614)" class="st0 st5 st4">т</text>
<text transform="matrix(1 0 0 1 68.601 96.614)" class="st0 st5 st4"> р</text>
<text transform="matrix(1 0 0 1 77.501 96.614)" class="st0 st5 st4">и</text>
<text transform="matrix(1 0 0 1 83.541 96.614)" class="st0 st5 st4">с</text>
<text transform="matrix(1 0 0 1 88.741 96.614)" class="st0 st5 st4">к</text>
<text transform="matrix(1 0 0 1 28.842 108.614)" class="st0 st5 st4">рас</text>
<text transform="matrix(1 0 0 1 46.152 108.614)" class="st0 st5 st4">п</text>
<text transform="matrix(1 0 0 1 52.062 108.614)" class="st0 st5 st4">р</text>
<text transform="matrix(1 0 0 1 58.321 108.614)" class="st0 st5 st4">о</text>
<text transform="matrix(1 0 0 1 64.431 108.614)" class="st0 st5 st4">с</text>
<text transform="matrix(1 0 0 1 69.551 108.614)" class="st0 st5 st4">т</text>
<text transform="matrix(1 0 0 1 74.171 108.614)" class="st0 st5 st4">ранен</text>
<text transform="matrix(1 0 0 1 103.911 108.614)" class="st0 st5 st4">и</text>
<text transform="matrix(1 0 0 1 109.95 108.614)" class="st0 st5 st4">я </text>
<text transform="matrix(1 0 0 1 118.22 108.614)" class="st0 st5 st4">б</text>
<text transform="matrix(1 0 0 1 124.31 108.614)" class="st0 st5 st4">о</text>
<text transform="matrix(1 0 0 1 130.27 108.614)" class="st0 st5 st4">л</text>
<text transform="matrix(1 0 0 1 136.1 108.614)" class="st0 st5 st4">е</text>
<text transform="matrix(1 0 0 1 141.56 108.614)" class="st0 st5 st4">зн</text>
<text transform="matrix(1 0 0 1 152.68 108.614)" class="st0 st5 st4">и</text>
<text transform="matrix(1 0 0 1 28.842 120.614)" class="st0 st5 st4">и</text>
<text transform="matrix(1 0 0 1 34.882 120.614)" class="st0 st5 st4"> </text>
<text transform="matrix(1 0 0 1 37.522 120.614)" class="st0 st5 st4">в</text>
<text transform="matrix(1 0 0 1 43.182 120.614)" class="st0 st5 st4">ыс</text>
<text transform="matrix(1 0 0 1 55.292 120.614)" class="st0 st5 st4">воб</text>
<text transform="matrix(1 0 0 1 73.152 120.614)" class="st0 st5 st4">о</text>
<text transform="matrix(1 0 0 1 78.871 120.614)" class="st0 st5 st4">ж</text>
<text transform="matrix(1 0 0 1 86.051 120.614)" class="st0 st5 st4">д</text>
<text transform="matrix(1 0 0 1 92.331 120.614)" class="st0 st5 st4">а</text>
<text transform="matrix(1 0 0 1 98.181 120.614)" class="st0 st5 st4">е</text>
<text transform="matrix(1 0 0 1 103.641 120.614)" class="st0 st5 st4">т</text>
<text transform="matrix(1 0 0 1 107.871 120.614)" class="st0 st5 st4"> </text>
<text transform="matrix(1 0 0 1 110.511 120.614)" class="st0 st5 st4">в</text>
<text transform="matrix(1 0 0 1 116.171 120.614)" class="st0 st5 st4">ре</text>
<text transform="matrix(1 0 0 1 128.061 120.614)" class="st0 st5 st4">м</text>
<text transform="matrix(1 0 0 1 134.921 120.614)" class="st0 st5 st4">я</text>
<text transform="matrix(1 0 0 1 28.842 132.614)" class="st0 st5 st4">на </text>
<text transform="matrix(1 0 0 1 43.332 132.614)" class="st0 st5 st4">во</text>
<text transform="matrix(1 0 0 1 55.102 132.614)" class="st0 st5 st4">с</text>
<text transform="matrix(1 0 0 1 60.201 132.614)" class="st0 st5 st4">с</text>
<text transform="matrix(1 0 0 1 65.321 132.614)" class="st0 st5 st4">т</text>
<text transform="matrix(1 0 0 1 69.941 132.614)" class="st0 st5 st4">ан</text>
<text transform="matrix(1 0 0 1 81.791 132.614)" class="st0 st5 st4">о</text>
<text transform="matrix(1 0 0 1 87.901 132.614)" class="st0 st5 st4">в</text>
<text transform="matrix(1 0 0 1 93.481 132.614)" class="st0 st5 st4">лен</text>
<text transform="matrix(1 0 0 1 110.941 132.614)" class="st0 st5 st4">и</text>
<text transform="matrix(1 0 0 1 116.981 132.614)" class="st0 st5 st4">е</text>
<text transform="matrix(1 0 0 1 28.842 144.614)" class="st0 st5 st4">у</text>
<text transform="matrix(1 0 0 1 34.222 144.614)" class="st0 st5 st4">ч</text>
<text transform="matrix(1 0 0 1 39.732 144.614)" class="st0 st5 st4">а</text>
<text transform="matrix(1 0 0 1 45.582 144.614)" class="st0 st5 st4">с</text>
<text transform="matrix(1 0 0 1 50.702 144.614)" class="st0 st5 st4">т</text>
<text transform="matrix(1 0 0 1 55.321 144.614)" class="st0 st5 st4">к</text>
<text transform="matrix(1 0 0 1 60.122 144.614)" class="st0 st5 st4">о</text>
<text transform="matrix(1 0 0 1 66.232 144.614)" class="st0 st5 st4">в</text>
<g>
	<defs>
		<rect id="SVGID_1_" y="0" width="244.8" height="266.4"/>
	</defs>
	<clipPath id="SVGID_00000119078636623180977990000016010957062159299467_">
		<use xlink:href="#SVGID_1_"  style="overflow:visible;"/>
	</clipPath>
	<g style="clip-path:url(#SVGID_00000119078636623180977990000016010957062159299467_);">
		<path class="st3" d="M19.8,63.5L19.8,63.5L19.8,63.5c-0.5,0.2-1.1,0.3-1.6,0.3h0l-0.8,1.1c-0.2,0.2-0.4,0.3-0.6,0.3h-0.6
			c-0.1,0-0.3-0.1-0.3-0.3c0,0,0-0.1,0-0.1l0.4-1.1h0.1c-0.5-0.1-1-0.1-1.4-0.2l-0.8,1c-0.1,0.1-0.3,0.2-0.4,0.1
			c-0.1-0.1-0.2-0.3-0.1-0.4c0,0,0-0.1,0.1-0.1l0.6-0.8c-0.3-0.1-0.7-0.2-1-0.3c-0.1,0-0.2,0-0.3,0.1c-0.5,0.6-1.1,1-1.8,1.1
			c-0.2,0.1-0.4-0.1-0.5-0.3c0-0.1,0-0.2,0-0.3c0.5-1.1,0.5-2.3,0-3.4c-0.1-0.2,0-0.4,0.2-0.5c0.1,0,0.2,0,0.3,0
			c0.7,0.2,1.4,0.6,1.8,1.1c0.1,0.1,0.2,0.1,0.3,0.1c0.6-0.2,1.3-0.4,2-0.5h0l-0.3-1C14.9,59.2,15,59,15.3,59c0,0,0.1,0,0.1,0h1.5
			c0.4,0,0.8,0.2,1,0.5l0.6,0.8h0c0.5,0.1,0.9,0.2,1.4,0.3l0,0l0,0c0.7,0.2,1.4,0.6,2,1.1c0.2,0.2,0.2,0.4,0,0.6c0,0,0,0,0,0
			C21.2,62.9,20.5,63.3,19.8,63.5 M16.1,55C12.2,55,9,58.2,9,62.1c0,3.9,3.2,7.1,7.1,7.1s7.1-3.2,7.1-7.1l0,0
			C23.2,58.2,20,55,16.1,55"/>
	</g>
</g>
<text transform="matrix(1 0 0 1 28.893 184.847)" class="st3 st1 st4">ДИ</text>
<text transform="matrix(1 0 0 1 44.643 184.847)" class="st3 st1 st4">В</text>
<text transform="matrix(1 0 0 1 51.903 184.847)" class="st3 st1 st4">ЕР</text>
<text transform="matrix(1 0 0 1 65.073 184.847)" class="st3 st1 st4">С</text>
<text transform="matrix(1 0 0 1 71.943 184.847)" class="st3 st1 st4">И</text>
<text transform="matrix(1 0 0 1 79.653 184.847)" class="st3 st1 st4">Ф</text>
<text transform="matrix(1 0 0 1 89.022 184.847)" class="st3 st1 st4">ИК</text>
<text transform="matrix(1 0 0 1 103.882 184.847)" class="st3 st1 st4">АЦ</text>
<text transform="matrix(1 0 0 1 119.612 184.847)" class="st3 st1 st4">И</text>
<text transform="matrix(1 0 0 1 127.322 184.847)" class="st3 st1 st4">Я</text>
<text transform="matrix(1 0 0 1 28.893 196.847)" class="st3 st1 st4">П</text>
<text transform="matrix(1 0 0 1 36.393 196.847)" class="st3 st1 st4">О </text>
<text transform="matrix(1 0 0 1 47.373 196.847)" class="st3 st1 st4">Т</text>
<text transform="matrix(1 0 0 1 53.943 196.847)" class="st3 st1 st4">ИП</text>
<text transform="matrix(1 0 0 1 69.153 196.847)" class="st3 st1 st4">А</text>
<text transform="matrix(1 0 0 1 76.953 196.847)" class="st3 st1 st4">М</text>
<text transform="matrix(1 0 0 1 28.893 210.847)" class="st3 st1 st4">ВЫ</text>
<text transform="matrix(1 0 0 1 45.333 210.847)" class="st3 st1 st4">Р</text>
<text transform="matrix(1 0 0 1 51.143 210.847)" class="st3 st1 st4">АЩИВАЕМО</text>
<text transform="matrix(1 0 0 1 115.302 210.847)" class="st3 st1 st4">Й </text>
<text transform="matrix(1 0 0 1 125.382 210.847)" class="st3 st1 st4">РЫБЫ</text>
<text transform="matrix(1 0 0 1 28.842 228.516)" class="st0 st5 st4">(</text>
<text transform="matrix(1 0 0 1 32.302 228.516)" class="st0 st5 st4">л</text>
<text transform="matrix(1 0 0 1 38.132 228.516)" class="st0 st5 st4">о</text>
<text transform="matrix(1 0 0 1 44.242 228.516)" class="st0 st5 st4">с</text>
<text transform="matrix(1 0 0 1 49.342 228.516)" class="st0 st5 st4">о</text>
<text transform="matrix(1 0 0 1 55.452 228.516)" class="st0 st5 st4">с</text>
<text transform="matrix(1 0 0 1 60.652 228.516)" class="st0 st5 st4">ь</text>
<text transform="matrix(1 0 0 1 66.132 228.516)" class="st0 st5 st4">/</text>
<text transform="matrix(1 0 0 1 70.172 228.516)" class="st0 st5 st4">ф</text>
<text transform="matrix(1 0 0 1 77.271 228.516)" class="st0 st5 st4">о</text>
<text transform="matrix(1 0 0 1 83.381 228.516)" class="st0 st5 st4">р</text>
<text transform="matrix(1 0 0 1 89.641 228.516)" class="st0 st5 st4">е</text>
<text transform="matrix(1 0 0 1 95.191 228.516)" class="st0 st5 st4">л</text>
<text transform="matrix(1 0 0 1 101.021 228.516)" class="st0 st5 st4">ь</text>
<text transform="matrix(1 0 0 1 106.111 228.516)" class="st0 st5 st4">)</text>
<text transform="matrix(1 0 0 1 28.842 240.516)" class="st0 st5 st4">сни</text>
<text transform="matrix(1 0 0 1 45.942 240.516)" class="st0 st5 st4">ж</text>
<text transform="matrix(1 0 0 1 52.862 240.516)" class="st0 st5 st4">а</text>
<text transform="matrix(1 0 0 1 58.661 240.516)" class="st0 st5 st4">е</text>
<text transform="matrix(1 0 0 1 64.071 240.516)" class="st0 st5 st4">т</text>
<text transform="matrix(1 0 0 1 68.241 240.516)" class="st0 st5 st4"> общий уровен</text>
<text transform="matrix(1 0 0 1 140.68 240.516)" class="st0 st5 st4">ь</text>
<text transform="matrix(1 0 0 1 28.842 252.516)" class="st0 st5 st4">би</text>
<text transform="matrix(1 0 0 1 40.972 252.516)" class="st0 st5 st4">о</text>
<text transform="matrix(1 0 0 1 46.932 252.516)" class="st0 st5 st4">л</text>
<text transform="matrix(1 0 0 1 52.762 252.516)" class="st0 st5 st4">о</text>
<text transform="matrix(1 0 0 1 58.872 252.516)" class="st0 st5 st4">г</text>
<text transform="matrix(1 0 0 1 63.642 252.516)" class="st0 st5 st4">ич</text>
<text transform="matrix(1 0 0 1 75.192 252.516)" class="st0 st5 st4">еск</text>
<text transform="matrix(1 0 0 1 91.141 252.516)" class="st0 st5 st4">их</text>
<text transform="matrix(1 0 0 1 102.561 252.516)" class="st0 st5 st4"> р</text>
<text transform="matrix(1 0 0 1 111.461 252.516)" class="st0 st5 st4">и</text>
<text transform="matrix(1 0 0 1 117.501 252.516)" class="st0 st5 st4">с</text>
<text transform="matrix(1 0 0 1 122.701 252.516)" class="st0 st5 st4">к</text>
<text transform="matrix(1 0 0 1 127.501 252.516)" class="st0 st5 st4">о</text>
<text transform="matrix(1 0 0 1 133.611 252.516)" class="st0 st5 st4">в</text>
<g>
	<defs>
		<rect id="SVGID_00000163769785963068186390000004639032760747791532_" y="0" width="244.8" height="266.4"/>
	</defs>
	<clipPath id="SVGID_00000111905487616793290020000007047875379088352384_">
		<use xlink:href="#SVGID_00000163769785963068186390000004639032760747791532_"  style="overflow:visible;"/>
	</clipPath>
	<g style="clip-path:url(#SVGID_00000111905487616793290020000007047875379088352384_);">
		<path class="st3" d="M19.8,183.4L19.8,183.4L19.8,183.4c-0.5,0.2-1.1,0.3-1.6,0.3h0l-0.8,1.1c-0.2,0.2-0.4,0.3-0.6,0.3h-0.6
			c-0.1,0-0.3-0.1-0.3-0.3c0,0,0-0.1,0-0.1l0.4-1.1h0.1c-0.5-0.1-1-0.1-1.4-0.2l-0.8,1c-0.1,0.1-0.3,0.2-0.4,0.1
			c-0.1-0.1-0.2-0.3-0.1-0.4c0,0,0-0.1,0.1-0.1l0.6-0.8c-0.3-0.1-0.7-0.2-1-0.3c-0.1,0-0.2,0-0.3,0.1c-0.5,0.6-1.1,1-1.8,1.1
			c-0.2,0.1-0.4-0.1-0.5-0.3c0-0.1,0-0.2,0-0.3c0.5-1.1,0.5-2.3,0-3.4c-0.1-0.2,0-0.4,0.2-0.5c0.1,0,0.2,0,0.3,0
			c0.7,0.2,1.4,0.6,1.8,1.1c0.1,0.1,0.2,0.1,0.3,0.1c0.6-0.2,1.3-0.4,2-0.5h0l-0.3-1c-0.1-0.2,0.1-0.4,0.3-0.5c0,0,0.1,0,0.1,0h1.5
			c0.4,0,0.8,0.2,1,0.5l0.6,0.8h0c0.5,0.1,0.9,0.2,1.4,0.3l0,0l0,0c0.7,0.2,1.4,0.6,2,1.1c0.2,0.2,0.2,0.4,0,0.6c0,0,0,0,0,0
			C21.2,182.8,20.5,183.2,19.8,183.4 M16.1,174.9c-3.9,0-7.1,3.2-7.1,7.1c0,3.9,3.2,7.1,7.1,7.1s7.1-3.2,7.1-7.1
			S20,174.9,16.1,174.9C16.1,174.9,16.1,174.9,16.1,174.9"/>
	</g>
</g>
</svg>
