<svg width="50" height="48" viewBox="0 0 50 48" fill="none" xmlns="http://www.w3.org/2000/svg">
<path d="M10.0673 42.5205C9.34824 44.0142 8.62915 45.4084 7.70462 46.6034C10.17 45.6075 12.2246 44.1138 13.8682 42.1222C11.9164 40.5288 9.55369 39.3338 6.88281 38.8359C8.0128 39.9313 9.04006 41.1263 10.0673 42.5205Z" fill="white"/>
<path d="M34.4143 40.3311C31.6407 38.3394 27.8399 37.244 23.7308 37.5428C19.7245 37.9411 16.1291 39.634 13.8691 42.1236C16.6427 44.1152 20.4436 45.2106 24.5526 44.9119C28.5589 44.6131 32.0516 42.8207 34.4143 40.3311Z" fill="white"/>
<path d="M34.5167 30.1713C33.6949 34.1546 34.3113 37.9388 35.9549 40.9262C38.7285 38.835 40.8857 35.6484 41.8103 31.6651C42.6321 27.6818 42.0157 23.8976 40.3721 20.9102C37.5985 23.0014 35.4413 26.2876 34.5167 30.1713Z" fill="white"/>
<path d="M30.7168 46.5063C32.0522 45.8092 33.5931 45.1121 35.134 44.6142C36.3667 45.7096 37.4967 46.805 38.4212 48C38.2158 45.4109 37.394 42.9213 35.9558 40.8301C33.9013 42.3238 32.0522 44.2159 30.7168 46.5063Z" fill="white"/>
<path d="M23.832 8.56499C24.8593 11.8512 27.222 14.9383 30.7147 17.1291C34.2074 19.2203 38.0082 19.9174 41.3982 19.3199C40.3709 16.0337 38.0082 12.9466 34.5155 10.7558C31.0228 8.66457 27.222 7.9675 23.832 8.56499Z" fill="white"/>
<path d="M44.6876 21.3089C46.1258 20.5122 47.5639 19.8152 49.0021 19.4168C46.434 18.7198 43.8658 18.7198 41.4004 19.3173C42.0167 21.8068 43.1467 24.0972 44.9958 26.0889C44.6876 24.5951 44.5849 23.0018 44.6876 21.3089Z" fill="white"/>
<path d="M30.508 5.6762C28.9671 5.47704 27.4262 5.17829 25.7826 4.68038C25.3717 3.08706 25.1662 1.49374 25.1662 0C23.7281 2.19081 23.009 4.68038 22.9062 7.16994C25.5771 7.3691 28.1453 6.87119 30.508 5.6762Z" fill="white"/>
<path d="M23.0093 7.16797C19.5166 7.16797 15.8185 8.56212 12.8394 11.3504C9.86037 14.0392 8.11403 17.5245 7.70313 20.9104C11.1958 20.9104 14.8939 19.5162 17.873 16.7279C20.852 14.0392 22.5984 10.5538 23.0093 7.16797Z" fill="white"/>
<path d="M7.19082 13.9414C6.47173 15.3356 5.64993 16.6301 4.62267 18.0243C2.97905 17.8251 1.43816 17.5264 0 17.0285C1.64361 19.1197 3.80086 20.6134 6.16356 21.5097C7.08809 19.2193 7.49899 16.6301 7.19082 13.9414Z" fill="white"/>
<path d="M14.0723 40.4304C15.2023 37.1442 15.0996 33.2605 13.5587 29.4764C12.0178 25.6922 9.24421 22.9039 6.16243 21.5098C5.03245 24.796 5.13517 28.6797 6.67606 32.4638C8.21695 36.1484 10.9906 38.9367 14.0723 40.4304Z" fill="white"/>
</svg>
