<svg width="96" height="95" viewBox="0 0 96 95" fill="none" xmlns="http://www.w3.org/2000/svg">
<ellipse cx="48.4019" cy="47.5374" rx="34.2581" ry="33.6117" transform="rotate(-143.708 48.4019 47.5374)" fill="#C4C4C4"/>
<path d="M33.0673 64.5205C32.3482 66.0142 31.6292 67.4084 30.7046 68.6034C33.17 67.6075 35.2246 66.1138 36.8682 64.1222C34.9164 62.5288 32.5537 61.3338 29.8828 60.8359C31.0128 61.9313 32.0401 63.1263 33.0673 64.5205Z" fill="white"/>
<path d="M57.4143 62.3311C54.6407 60.3394 50.8399 59.244 46.7308 59.5428C42.7245 59.9411 39.1291 61.634 36.8691 64.1236C39.6427 66.1152 43.4436 67.2106 47.5526 66.9119C51.5589 66.6131 55.0516 64.8207 57.4143 62.3311Z" fill="white"/>
<path d="M57.5167 52.1713C56.6949 56.1546 57.3113 59.9388 58.9549 62.9262C61.7285 60.835 63.8857 57.6484 64.8103 53.6651C65.6321 49.6818 65.0157 45.8976 63.3721 42.9102C60.5985 45.0014 58.4413 48.2876 57.5167 52.1713Z" fill="white"/>
<path d="M53.7168 68.5063C55.0522 67.8092 56.5931 67.1121 58.134 66.6142C59.3667 67.7096 60.4967 68.805 61.4212 70C61.2158 67.4109 60.394 64.9213 58.9558 62.8301C56.9013 64.3238 55.0522 66.2159 53.7168 68.5063Z" fill="white"/>
<path d="M46.832 30.565C47.8593 33.8512 50.222 36.9383 53.7147 39.1291C57.2074 41.2203 61.0082 41.9174 64.3982 41.3199C63.3709 38.0337 61.0082 34.9466 57.5155 32.7558C54.0228 30.6646 50.222 29.9675 46.832 30.565Z" fill="white"/>
<path d="M67.6876 43.3089C69.1258 42.5122 70.5639 41.8152 72.0021 41.4168C69.434 40.7198 66.8658 40.7198 64.4004 41.3173C65.0167 43.8068 66.1467 46.0972 67.9958 48.0889C67.6876 46.5951 67.5849 45.0018 67.6876 43.3089Z" fill="white"/>
<path d="M53.508 27.6762C51.9671 27.477 50.4262 27.1783 48.7826 26.6804C48.3717 25.0871 48.1662 23.4937 48.1662 22C46.7281 24.1908 46.009 26.6804 45.9062 29.1699C48.5771 29.3691 51.1453 28.8712 53.508 27.6762Z" fill="white"/>
<path d="M46.0093 29.168C42.5166 29.168 38.8185 30.5621 35.8394 33.3504C32.8604 36.0392 31.114 39.5245 30.7031 42.9104C34.1958 42.9104 37.8939 41.5162 40.873 38.7279C43.852 36.0392 45.5984 32.5538 46.0093 29.168Z" fill="white"/>
<path d="M30.1908 35.9414C29.4717 37.3356 28.6499 38.6301 27.6227 40.0243C25.9791 39.8251 24.4382 39.5264 23 39.0285C24.6436 41.1197 26.8009 42.6134 29.1636 43.5097C30.0881 41.2193 30.499 38.6301 30.1908 35.9414Z" fill="white"/>
<path d="M37.0723 62.4304C38.2023 59.1442 38.0996 55.2605 36.5587 51.4764C35.0178 47.6922 32.2442 44.9039 29.1624 43.5098C28.0324 46.796 28.1352 50.6797 29.6761 54.4638C31.217 58.1484 33.9906 60.9367 37.0723 62.4304Z" fill="white"/>
</svg>
