<svg width="53" height="53" viewBox="0 0 53 53" fill="none" xmlns="http://www.w3.org/2000/svg">
<path d="M10.8888 46.9512C10.111 48.6006 9.33323 50.14 8.33323 51.4595C10.9999 50.3599 13.2221 48.7106 14.9999 46.5114C12.8888 44.7521 10.3332 43.4326 7.44434 42.8828C8.66656 44.0923 9.77767 45.4118 10.8888 46.9512Z" fill="white"/>
<path d="M37.2222 44.5329C34.2222 42.3338 30.1111 41.1242 25.6667 41.4541C21.3333 41.8939 17.4444 43.7632 15 46.5122C18 48.7113 22.1111 49.9208 26.5556 49.591C30.8889 49.2611 34.6667 47.2819 37.2222 44.5329Z" fill="white"/>
<path d="M37.3334 33.3159C36.4445 37.7142 37.1112 41.8926 38.889 45.1913C41.889 42.8822 44.2223 39.3636 45.2223 34.9653C46.1112 30.567 45.4445 26.3886 43.6668 23.0898C40.6668 25.399 38.3334 29.0276 37.3334 33.3159Z" fill="white"/>
<path d="M33.2227 51.3516C34.6671 50.5819 36.3338 49.8122 38.0004 49.2624C39.3338 50.4719 40.556 51.6814 41.556 53.0009C41.3338 50.142 40.4449 47.3931 38.8893 45.084C36.6671 46.7333 34.6671 48.8225 33.2227 51.3516Z" fill="white"/>
<path d="M25.7773 9.45751C26.8885 13.0861 29.444 16.4948 33.2218 18.9139C36.9996 21.223 41.1107 21.9927 44.7773 21.3329C43.6662 17.7043 41.1107 14.2956 37.3329 11.8766C33.5551 9.56747 29.444 8.79776 25.7773 9.45751Z" fill="white"/>
<path d="M48.3329 23.5306C49.8885 22.651 51.444 21.8813 52.9996 21.4414C50.2218 20.6717 47.444 20.6717 44.7773 21.3315C45.444 24.0804 46.6662 26.6094 48.6662 28.8086C48.3329 27.1592 48.2218 25.3999 48.3329 23.5306Z" fill="white"/>
<path d="M33.0005 6.26758C31.3339 6.04767 29.6672 5.7178 27.8894 5.16801C27.445 3.40869 27.2228 1.64936 27.2228 0C25.6672 2.41907 24.8894 5.16801 24.7783 7.91695C27.6672 8.13686 30.445 7.58708 33.0005 6.26758Z" fill="white"/>
<path d="M24.8886 7.91602C21.1108 7.91602 17.1108 9.45542 13.8886 12.5342C10.6663 15.5031 8.77745 19.3516 8.33301 23.0902C12.1108 23.0902 16.1108 21.5508 19.333 18.4719C22.5552 15.5031 24.4441 11.6546 24.8886 7.91602Z" fill="white"/>
<path d="M7.77778 15.3926C7 16.932 6.11111 18.3614 5 19.9008C3.22222 19.6809 1.55556 19.3511 0 18.8013C1.77778 21.1104 4.11111 22.7597 6.66667 23.7494C7.66667 21.2203 8.11111 18.3614 7.77778 15.3926Z" fill="white"/>
<path d="M15.2223 44.6439C16.4445 41.0153 16.3334 36.727 14.6667 32.5486C13 28.3702 10 25.2914 6.6667 23.752C5.44448 27.3806 5.55559 31.6689 7.22226 35.8473C8.88892 39.9157 11.8889 42.9945 15.2223 44.6439Z" fill="white"/>
</svg>
