<svg width="54" height="54" viewBox="0 0 54 54" fill="none" xmlns="http://www.w3.org/2000/svg">
<path d="M11.3936 47.55C10.6141 49.2204 9.83453 50.7795 8.83229 52.1158C11.5049 51.0022 13.7321 49.3318 15.5139 47.1046C13.3981 45.3228 10.8368 43.9865 7.94141 43.4297C9.16637 44.6547 10.28 45.991 11.3936 47.55Z" fill="white"/>
<path d="M37.7858 45.1002C34.779 42.873 30.6587 41.6481 26.2043 41.9821C21.8612 42.4276 17.9636 44.3207 15.5137 47.1047C18.5204 49.3319 22.6407 50.5569 27.0952 50.2228C31.4382 49.8887 35.2245 47.8842 37.7858 45.1002Z" fill="white"/>
<path d="M37.8978 33.7413C37.0069 38.1957 37.6751 42.4274 39.4568 45.7682C42.4636 43.4296 44.8021 39.8661 45.8044 35.4117C46.6952 30.9573 46.0271 26.7256 44.2453 23.3848C41.2386 25.7233 38.9 29.3982 37.8978 33.7413Z" fill="white"/>
<path d="M33.7773 52.0057C35.225 51.2262 36.8954 50.4467 38.5658 49.8899C39.9022 51.1149 41.1271 52.3398 42.1294 53.6762C41.9067 50.7808 41.0158 47.9968 39.4567 45.6582C37.2295 47.3286 35.225 49.4445 33.7773 52.0057Z" fill="white"/>
<path d="M26.3154 9.57759C27.429 13.2525 29.9903 16.7047 33.7766 19.1546C37.5628 21.4932 41.6832 22.2727 45.3581 21.6045C44.2445 17.9296 41.6832 14.4775 37.8969 12.0275C34.1107 9.68895 29.9903 8.90943 26.3154 9.57759Z" fill="white"/>
<path d="M48.9219 23.8304C50.481 22.9396 52.04 22.16 53.5991 21.7146C50.8151 20.9351 48.031 20.9351 45.3584 21.6032C46.0266 24.3873 47.2515 26.9485 49.256 29.1757C48.9219 27.5053 48.8106 25.7236 48.9219 23.8304Z" fill="white"/>
<path d="M33.5551 6.34754C31.8847 6.12482 30.2143 5.79074 28.4325 5.23394C27.9871 3.45217 27.7644 1.67041 27.7644 0C26.2053 2.44993 25.4258 5.23394 25.3145 8.01795C28.2098 8.24067 30.9938 7.68387 33.5551 6.34754Z" fill="white"/>
<path d="M25.4247 8.01758C21.6385 8.01758 17.6295 9.57662 14.4001 12.6947C11.1706 15.7014 9.27747 19.5991 8.83203 23.3853C12.6183 23.3853 16.6273 21.8263 19.8567 18.7082C23.0862 15.7014 24.9793 11.8038 25.4247 8.01758Z" fill="white"/>
<path d="M8.2757 15.5898C7.49618 17.1489 6.60529 18.5966 5.49169 20.1556C3.70992 19.9329 2.03951 19.5988 0.480469 19.042C2.26224 21.3806 4.6008 23.051 7.16209 24.0532C8.16434 21.4919 8.60978 18.5966 8.2757 15.5898Z" fill="white"/>
<path d="M15.7365 45.2132C16.9614 41.5383 16.8501 37.1952 15.1797 32.9635C13.5092 28.7318 10.5025 25.6137 7.16171 24.0547C5.93674 27.7296 6.0481 32.0726 7.71851 36.3043C9.38891 40.4247 12.3956 43.5428 15.7365 45.2132Z" fill="white"/>
</svg>
