{
  "accessors": [
    {
      "bufferView": 2,
      "componentType": 5126,
      "count": 30987,
      "max": [
        215.7531280517578,
        21.32788848876953,
        215.7421417236328
      ],
      "min": [
        -215.7531280517578,
        -21.32788848876953,
        -215.7421417236328
      ],
      "type": "VEC3"
    },
    {
      "bufferView": 2,
      "byteOffset": 371844,
      "componentType": 5126,
      "count": 30987,
      "max": [
        1.0,
        1.0,
        1.0
      ],
      "min": [
        -1.0,
        -1.0,
        -1.0
      ],
      "type": "VEC3"
    },
    {
      "bufferView": 3,
      "componentType": 5126,
      "count": 30987,
      "max": [
        1.0,
        0.8895434141159058,
        1.0,
        1.0
      ],
      "min": [
        -1.0,
        -0.8895466923713684,
        -1.0,
        -1.0
      ],
      "type": "VEC4"
    },
    {
      "bufferView": 1,
      "componentType": 5126,
      "count": 30987,
      "max": [
        0.9441102147102356,
        0.9934643507003784
      ],
      "min": [
        0.006537371780723333,
        0.03267824649810791
      ],
      "type": "VEC2"
    },
    {
      "bufferView": 1,
      "byteOffset": 247896,
      "componentType": 5126,
      "count": 30987,
      "max": [
        0.9441102147102356,
        0.9934643507003784
      ],
      "min": [
        0.006537371780723333,
        0.03267824649810791
      ],
      "type": "VEC2"
    },
    {
      "bufferView": 0,
      "componentType": 5125,
      "count": 126522,
      "type": "SCALAR"
    }
  ],
  "asset": {
    "extras": {
      "author": "viktorthmrv (https://sketchfab.com/viktorthmrv)",
      "license": "CC-BY-4.0 (http://creativecommons.org/licenses/by/4.0/)",
      "source": "https://sketchfab.com/3d-models/sadok-aee3ca5b9a4340208c6c5912e1609961",
      "title": "sadok"
    },
    "generator": "Sketchfab-13.8.0",
    "version": "2.0"
  },
  "bufferViews": [
    {
      "buffer": 0,
      "byteLength": 506088,
      "name": "floatBufferViews",
      "target": 34963
    },
    {
      "buffer": 0,
      "byteLength": 495792,
      "byteOffset": 506088,
      "byteStride": 8,
      "name": "floatBufferViews",
      "target": 34962
    },
    {
      "buffer": 0,
      "byteLength": 743688,
      "byteOffset": 1001880,
      "byteStride": 12,
      "name": "floatBufferViews",
      "target": 34962
    },
    {
      "buffer": 0,
      "byteLength": 495792,
      "byteOffset": 1745568,
      "byteStride": 16,
      "name": "floatBufferViews",
      "target": 34962
    }
  ],
  "buffers": [
    {
      "byteLength": 2241360,
      "uri": "scene.bin"
    }
  ],
  "extensionsUsed": [
    "KHR_materials_clearcoat"
  ],
  "images": [
    {
      "uri": "Sphere_baseColor.jpeg"
    },
    {
      "uri": "Sphere_metallicRoughness.png"
    },
    {
      "uri": "Sphere_normal.png"
    }
  ],
  "materials": [
    {
      "emissiveFactor": [
        1.0,
        1.0,
        1.0
      ],
      "emissiveTexture": {
        "index": 0
      },
      "extensions": {
        "KHR_materials_clearcoat": {
          "clearcoatFactor": 0.420295056574548,
          "clearcoatRoughnessFactor": 0.2125087364702771
        }
      },
      "name": "Sphere",
      "normalTexture": {
        "index": 2,
        "texCoord": 1
      },
      "occlusionTexture": {
        "index": 1
      },
      "pbrMetallicRoughness": {
        "baseColorTexture": {
          "index": 0
        },
        "metallicFactor": 0.4895571632759717,
        "metallicRoughnessTexture": {
          "index": 1
        },
        "roughnessFactor": 0.5399296045133707
      }
    }
  ],
  "meshes": [
    {
      "name": "Sphere_Sphere_0",
      "primitives": [
        {
          "attributes": {
            "NORMAL": 1,
            "POSITION": 0,
            "TANGENT": 2,
            "TEXCOORD_0": 3,
            "TEXCOORD_1": 4
          },
          "indices": 5,
          "material": 0,
          "mode": 4
        }
      ]
    }
  ],
  "nodes": [
    {
      "children": [
        1
      ],
      "matrix": [
        1.0,
        -2.8327693431939995e-16,
        2.8327693431939985e-16,
        0.0,
        -2.832769343193999e-16,
        -2.2204460492503126e-16,
        1.0,
        0.0,
        -2.832769343193999e-16,
        -1.0,
        -2.2204460492503136e-16,
        0.0,
        0.0,
        0.0,
        0.0,
        1.0
      ],
      "name": "Sketchfab_model"
    },
    {
      "children": [
        2
      ],
      "matrix": [
        0.009999999776482582,
        0.0,
        0.0,
        0.0,
        0.0,
        0.0,
        0.009999999776482582,
        0.0,
        0.0,
        -0.009999999776482582,
        0.0,
        0.0,
        0.0,
        0.0,
        0.0,
        1.0
      ],
      "name": "839b7634fb5344f2b70a6b92e76b00b7.fbx"
    },
    {
      "children": [
        3,
        5
      ],
      "name": "RootNode"
    },
    {
      "children": [
        4
      ],
      "matrix": [
        0.526328177096989,
        0.1036605431069438,
        0.843939062845496,
        0.0,
        0.05485498304323726,
        -0.9946127345870726,
        0.08795702946639744,
        0.0,
        0.84851021256617,
        1.0408340855860843e-16,
        -0.5291790048470495,
        0.0,
        -431.7216796875,
        -81.77438354492188,
        -675.2150268554688,
        1.0
      ],
      "name": "CINEMA_4D_Editor"
    },
    {
      "name": "Object_4"
    },
    {
      "children": [
        6
      ],
      "matrix": [
        1.0,
        0.0,
        0.0,
        0.0,
        0.0,
        1.0,
        0.0,
        0.0,
        0.0,
        0.0,
        1.0,
        0.0,
        0.0,
        -9.819334983825684,
        -0.17059358954429626,
        1.0
      ],
      "name": "Sphere"
    },
    {
      "mesh": 0,
      "name": "Sphere_Sphere_0"
    }
  ],
  "samplers": [
    {
      "magFilter": 9729,
      "minFilter": 9987,
      "wrapS": 10497,
      "wrapT": 10497
    }
  ],
  "scene": 0,
  "scenes": [
    {
      "name": "Sketchfab_Scene",
      "nodes": [
        0
      ]
    }
  ],
  "textures": [
    {
      "sampler": 0,
      "source": 0
    },
    {
      "sampler": 0,
      "source": 1
    },
    {
      "sampler": 0,
      "source": 2
    }
  ]
}
