{
  "accessors": [
    {
      "bufferView": 2,
      "componentType": 5126,
      "count": 10362,
      "max": [
        1383.2957763671875,
        1194.7314453125,
        449.2068786621094
      ],
      "min": [
        -2146.375,
        -255.36532592773438,
        -449.85003662109375
      ],
      "type": "VEC3"
    },
    {
      "bufferView": 2,
      "byteOffset": 124344,
      "componentType": 5126,
      "count": 10362,
      "max": [
        1.0,
        1.0,
        1.0
      ],
      "min": [
        -1.0,
        -1.0,
        -1.0
      ],
      "type": "VEC3"
    },
    {
      "bufferView": 1,
      "componentType": 5126,
      "count": 10362,
      "max": [
        0.9598253965377808,
        0.9631428718566895
      ],
      "min": [
        0.04753340035676956,
        0.04120044410228729
      ],
      "type": "VEC2"
    },
    {
      "bufferView": 0,
      "componentType": 5125,
      "count": 15759,
      "type": "SCALAR"
    }
  ],
  "asset": {
    "extras": {
      "author": "JasperTobias (https://sketchfab.com/JasperTobias)",
      "license": "CC-BY-4.0 (http://creativecommons.org/licenses/by/4.0/)",
      "source": "https://sketchfab.com/3d-models/trawler-421f3239115c44539686fcb62835f115",
      "title": "Trawler"
    },
    "generator": "Sketchfab-12.68.0",
    "version": "2.0"
  },
  "bufferViews": [
    {
      "buffer": 0,
      "byteLength": 63036,
      "name": "floatBufferViews",
      "target": 34963
    },
    {
      "buffer": 0,
      "byteLength": 82896,
      "byteOffset": 63036,
      "byteStride": 8,
      "name": "floatBufferViews",
      "target": 34962
    },
    {
      "buffer": 0,
      "byteLength": 248688,
      "byteOffset": 145932,
      "byteStride": 12,
      "name": "floatBufferViews",
      "target": 34962
    }
  ],
  "buffers": [
    {
      "byteLength": 394620,
      "uri": "scene.bin"
    }
  ],
  "images": [
    {
      "uri": "Colour_Palette_baseColor.png"
    }
  ],
  "materials": [
    {
      "doubleSided": true,
      "name": "Colour_Palette",
      "pbrMetallicRoughness": {
        "baseColorTexture": {
          "index": 0
        },
        "metallicFactor": 0.0
      }
    }
  ],
  "meshes": [
    {
      "name": "Trawler_Colour Palette_0",
      "primitives": [
        {
          "attributes": {
            "NORMAL": 1,
            "POSITION": 0,
            "TEXCOORD_0": 2
          },
          "indices": 3,
          "material": 0,
          "mode": 4
        }
      ]
    }
  ],
  "nodes": [
    {
      "children": [
        1
      ],
      "matrix": [
        1.0,
        0.0,
        0.0,
        0.0,
        0.0,
        2.220446049250313e-16,
        -1.0,
        0.0,
        0.0,
        1.0,
        2.220446049250313e-16,
        0.0,
        0.0,
        0.0,
        0.0,
        1.0
      ],
      "name": "Sketchfab_model"
    },
    {
      "children": [
        2
      ],
      "matrix": [
        1.0,
        0.0,
        0.0,
        0.0,
        0.0,
        0.0,
        1.0,
        0.0,
        0.0,
        -1.0,
        0.0,
        0.0,
        0.0,
        0.0,
        0.0,
        1.0
      ],
      "name": "4336d96c515a4bdb99c08238bd7eb648.fbx"
    },
    {
      "children": [
        3
      ],
      "name": "RootNode"
    },
    {
      "children": [
        4
      ],
      "name": "Trawler"
    },
    {
      "mesh": 0,
      "name": "Trawler_Colour Palette_0"
    }
  ],
  "samplers": [
    {
      "magFilter": 9729,
      "minFilter": 9987,
      "wrapS": 10497,
      "wrapT": 10497
    }
  ],
  "scene": 0,
  "scenes": [
    {
      "name": "Sketchfab_Scene",
      "nodes": [
        0
      ]
    }
  ],
  "textures": [
    {
      "sampler": 0,
      "source": 0
    }
  ]
}
