<svg width="557" height="280" viewBox="0 0 557 280" fill="none" xmlns="http://www.w3.org/2000/svg">
<path d="M2 143.388C0.895431 143.388 0 142.493 0 141.388V101.34C0 100.236 0.89543 99.3402 2 99.3402H30.5314C31.636 99.3402 32.5314 100.236 32.5314 101.34V107.282C32.5314 108.387 31.6359 109.282 30.5314 109.282H13.3262C12.2216 109.282 11.3262 110.178 11.3262 111.282V141.388C11.3262 142.493 10.4308 143.388 9.32621 143.388H2Z" fill="white"/>
<path d="M49.5374 130.3C51.7607 132.649 54.5293 133.823 57.8433 133.823C61.1572 133.823 63.9049 132.649 66.0862 130.3C68.3095 127.95 69.4212 124.972 69.4212 121.364C69.4212 117.756 68.3095 114.778 66.0862 112.429C63.9049 110.08 61.1572 108.905 57.8433 108.905C54.5293 108.905 51.7607 110.08 49.5374 112.429C47.3561 114.778 46.2654 117.756 46.2654 121.364C46.2654 124.972 47.3561 127.95 49.5374 130.3ZM74.4551 137.599C70.0504 142.046 64.5132 144.269 57.8433 144.269C51.1734 144.269 45.6361 142.046 41.2315 137.599C36.8269 133.152 34.6246 127.741 34.6246 121.364C34.6246 114.988 36.8269 109.576 41.2315 105.129C45.6361 100.683 51.1734 98.4593 57.8433 98.4593C64.5132 98.4593 70.0504 100.683 74.4551 105.129C78.8597 109.576 81.062 114.988 81.062 121.364C81.062 127.741 78.8597 133.152 74.4551 137.599Z" fill="white"/>
<path d="M84.0039 151.946C82.8993 151.946 82.0039 151.051 82.0039 149.946V135.446C82.0039 134.341 82.8993 133.446 84.0039 133.446H85.0888C85.7906 133.446 86.4464 133.082 86.7765 132.463C89.7612 126.863 91.2536 118.465 91.2536 107.269V101.34C91.2536 100.236 92.149 99.3402 93.2536 99.3402H122.1C123.204 99.3402 124.1 100.236 124.1 101.34V131.446C124.1 132.55 124.995 133.446 126.1 133.446H127.889C128.993 133.446 129.889 134.341 129.889 135.446V149.946C129.889 151.051 128.993 151.946 127.889 151.946H121.192C120.087 151.946 119.192 151.051 119.192 149.946V145.388C119.192 144.284 118.296 143.388 117.192 143.388H94.6379C93.5334 143.388 92.6379 144.284 92.6379 145.388V149.946C92.6379 151.051 91.7425 151.946 90.6379 151.946H84.0039ZM99.5054 130.7C99.0864 132.038 100.058 133.446 101.461 133.446H110.773C111.878 133.446 112.773 132.55 112.773 131.446V111.282C112.773 110.178 111.878 109.282 110.773 109.282H104.482C103.391 109.282 102.504 110.158 102.466 111.248C102.207 118.738 101.22 125.221 99.5054 130.7Z" fill="white"/>
<path d="M149.268 130.3C151.492 132.649 154.26 133.823 157.574 133.823C160.888 133.823 163.636 132.649 165.817 130.3C168.041 127.95 169.152 124.972 169.152 121.364C169.152 117.756 168.041 114.778 165.817 112.429C163.636 110.08 160.888 108.905 157.574 108.905C154.26 108.905 151.492 110.08 149.268 112.429C147.087 114.778 145.996 117.756 145.996 121.364C145.996 124.972 147.087 127.95 149.268 130.3ZM174.186 137.599C169.781 142.046 164.244 144.269 157.574 144.269C150.904 144.269 145.367 142.046 140.963 137.599C136.558 133.152 134.356 127.741 134.356 121.364C134.356 114.988 136.558 109.576 140.963 105.129C145.367 100.683 150.904 98.4593 157.574 98.4593C164.244 98.4593 169.781 100.683 174.186 105.129C178.591 109.576 180.793 114.988 180.793 121.364C180.793 127.741 178.591 133.152 174.186 137.599Z" fill="white"/>
<path d="M189.848 143.388C188.744 143.388 187.848 142.493 187.848 141.388V101.34C187.848 100.236 188.744 99.3402 189.848 99.3402H209.305C213.332 99.3402 216.625 100.305 219.184 102.235C221.743 104.123 223.023 106.87 223.023 110.478C223.023 112.659 222.498 114.484 221.449 115.953V115.953C220.535 117.196 220.894 120.202 222.058 121.217C222.608 121.697 223.139 122.249 223.652 122.874C225.372 124.972 226.232 127.594 226.232 130.74C226.232 134.516 224.784 137.578 221.89 139.927C219.037 142.234 215.241 143.388 210.501 143.388H189.848ZM199.175 131.949C199.175 133.054 200.07 133.949 201.175 133.949H208.298C210.018 133.949 211.361 133.551 212.326 132.754C213.332 131.915 213.836 130.761 213.836 129.293C213.836 127.825 213.332 126.671 212.326 125.832C211.361 124.993 210.018 124.573 208.298 124.573H201.175C200.07 124.573 199.175 125.469 199.175 126.573V131.949ZM199.175 114.204C199.175 115.309 200.07 116.204 201.175 116.204H207.606C208.991 116.204 210.081 115.869 210.878 115.197C211.717 114.526 212.137 113.603 212.137 112.429C212.137 111.212 211.717 110.268 210.878 109.597C210.081 108.884 208.991 108.527 207.606 108.527H201.175C200.07 108.527 199.175 109.423 199.175 110.527V114.204Z" fill="white"/>
<path d="M245.251 130.3C247.474 132.649 250.243 133.823 253.557 133.823C256.871 133.823 259.619 132.649 261.8 130.3C264.023 127.95 265.135 124.972 265.135 121.364C265.135 117.756 264.023 114.778 261.8 112.429C259.619 110.08 256.871 108.905 253.557 108.905C250.243 108.905 247.474 110.08 245.251 112.429C243.07 114.778 241.979 117.756 241.979 121.364C241.979 124.972 243.07 127.95 245.251 130.3ZM270.169 137.599C265.764 142.046 260.227 144.269 253.557 144.269C246.887 144.269 241.35 142.046 236.945 137.599C232.541 133.152 230.338 127.741 230.338 121.364C230.338 114.988 232.541 109.576 236.945 105.129C241.35 100.683 246.887 98.4593 253.557 98.4593C260.227 98.4593 265.764 100.683 270.169 105.129C274.573 109.576 276.776 114.988 276.776 121.364C276.776 127.741 274.573 133.152 270.169 137.599Z" fill="white"/>
<path d="M285.831 143.388C284.726 143.388 283.831 142.493 283.831 141.388V101.34C283.831 100.236 284.726 99.3402 285.831 99.3402H293.157C294.262 99.3402 295.157 100.236 295.157 101.34V118.075C295.157 120.009 297.629 120.817 298.771 119.256L312.743 100.159C313.119 99.6445 313.719 99.3402 314.357 99.3402H321.158C322.263 99.3402 323.158 100.236 323.158 101.34V141.388C323.158 142.493 322.263 143.388 321.158 143.388H313.832C312.727 143.388 311.832 142.493 311.832 141.388V124.367C311.832 122.436 309.367 121.626 308.222 123.18L293.932 142.574C293.555 143.086 292.957 143.388 292.322 143.388H285.831ZM311.895 94.1174C309.672 96.0891 306.861 97.0749 303.463 97.0749C300.065 97.0749 297.255 96.0891 295.031 94.1174C293.268 92.5533 292.177 90.5273 291.76 88.0393C291.574 86.9311 292.496 86 293.62 86H297.252C298.33 86 299.142 86.898 299.601 87.8733C299.781 88.2573 300.02 88.5978 300.317 88.8946C301.072 89.6077 302.1 89.9643 303.4 89.9643C304.701 89.9643 305.707 89.6077 306.421 88.8946C306.736 88.5963 306.99 88.254 307.181 87.8677C307.659 86.9016 308.471 86 309.548 86H313.306C314.43 86 315.352 86.9311 315.166 88.0393C314.749 90.5273 313.659 92.5533 311.895 94.1174Z" fill="white"/>
<path d="M360.959 130.3C363.182 132.649 365.951 133.823 369.265 133.823C372.579 133.823 375.326 132.649 377.508 130.3C379.731 127.95 380.843 124.972 380.843 121.364C380.843 117.756 379.731 114.778 377.508 112.429C375.326 110.08 372.579 108.905 369.265 108.905C365.951 108.905 363.182 110.08 360.959 112.429C358.778 114.778 357.687 117.756 357.687 121.364C357.687 124.972 358.778 127.95 360.959 130.3ZM385.877 137.599C381.472 142.046 375.935 144.269 369.265 144.269C362.595 144.269 357.058 142.046 352.653 137.599C348.248 133.152 346.046 127.741 346.046 121.364C346.046 114.988 348.248 109.576 352.653 105.129C357.058 100.683 362.595 98.4593 369.265 98.4593C375.935 98.4593 381.472 100.683 385.877 105.129C390.281 109.576 392.483 114.988 392.483 121.364C392.483 127.741 390.281 133.152 385.877 137.599Z" fill="white"/>
<path d="M409.042 143.388C407.937 143.388 407.042 142.493 407.042 141.388V111.282C407.042 110.178 406.146 109.282 405.042 109.282H395.828C394.723 109.282 393.828 108.387 393.828 107.282V101.34C393.828 100.236 394.723 99.3402 395.828 99.3402H429.645C430.749 99.3402 431.645 100.236 431.645 101.34V107.282C431.645 108.387 430.749 109.282 429.645 109.282H420.368C419.264 109.282 418.368 110.178 418.368 111.282V141.388C418.368 142.493 417.473 143.388 416.368 143.388H409.042Z" fill="white"/>
<path d="M463.485 143.388C462.38 143.388 461.485 142.493 461.485 141.388V130.199C461.485 128.847 460.166 127.88 458.839 128.138C457.039 128.488 455.111 128.664 453.053 128.664C447.726 128.664 443.615 127.405 440.72 124.888C437.826 122.329 436.378 118.679 436.378 113.939V101.34C436.378 100.236 437.274 99.3402 438.378 99.3402H445.705C446.809 99.3402 447.705 100.236 447.705 101.34V112.303C447.705 116.372 449.928 118.407 454.375 118.407C456.703 118.407 458.711 118.071 460.396 117.4C461.083 117.127 461.485 116.435 461.485 115.696V101.34C461.485 100.236 462.38 99.3402 463.485 99.3402H470.811C471.916 99.3402 472.811 100.236 472.811 101.34V141.388C472.811 142.493 471.916 143.388 470.811 143.388H463.485Z" fill="white"/>
<path d="M483.265 143.388C482.161 143.388 481.265 142.493 481.265 141.388V101.34C481.265 100.236 482.161 99.3402 483.265 99.3402H512.741C513.845 99.3402 514.741 100.236 514.741 101.34V107.282C514.741 108.387 513.845 109.282 512.741 109.282H494.592C493.487 109.282 492.592 110.178 492.592 111.282V113.26C492.592 114.365 493.487 115.26 494.592 115.26H508.21C509.315 115.26 510.21 116.156 510.21 117.26V122.825C510.21 123.93 509.315 124.825 508.21 124.825H494.592C493.487 124.825 492.592 125.72 492.592 126.825V131.446C492.592 132.55 493.487 133.446 494.592 133.446H513.244C514.349 133.446 515.244 134.341 515.244 135.446V141.388C515.244 142.493 514.349 143.388 513.244 143.388H483.265Z" fill="white"/>
<path d="M534.397 143.388C533.292 143.388 532.397 142.493 532.397 141.388V111.282C532.397 110.178 531.502 109.282 530.397 109.282H521.183C520.079 109.282 519.183 108.387 519.183 107.282V101.34C519.183 100.236 520.079 99.3402 521.183 99.3402H555C556.105 99.3402 557 100.236 557 101.34V107.282C557 108.387 556.105 109.282 555 109.282H545.723C544.619 109.282 543.723 110.178 543.723 111.282V141.388C543.723 142.493 542.828 143.388 541.723 143.388H534.397Z" fill="white"/>
<path d="M129.323 243.15L129.319 243.158L129.315 243.167C127.871 246.416 127.173 250.155 127.173 254.348V272.484C127.173 274.417 128.74 275.984 130.673 275.984H193.623C195.556 275.984 197.123 274.417 197.123 272.484V256.348C197.123 254.415 195.556 252.848 193.623 252.848H153.093C153.171 251.734 153.518 250.936 154.046 250.35C154.862 249.543 156.168 248.721 158.068 247.929L158.076 247.926L172.045 242.011L172.045 242.011L172.055 242.007C180.721 238.269 187.166 233.999 191.236 229.133C195.362 224.2 197.375 217.966 197.375 210.551V209.041C197.375 203.255 195.97 198.034 193.134 193.419C190.371 188.702 186.285 185.035 180.945 182.406C175.646 179.671 169.191 178.344 161.644 178.344C154.003 178.344 147.457 179.717 142.071 182.543L142.071 182.543L142.061 182.547C136.789 185.36 132.753 189.252 130.003 194.219C127.571 198.612 126.233 203.543 125.965 208.981C125.866 210.99 127.502 212.555 129.414 212.555H148.066C150.04 212.555 151.469 210.973 151.664 209.225C151.935 206.806 152.757 204.934 154.065 203.513L154.075 203.502L154.084 203.491C155.644 201.727 158.067 200.725 161.644 200.725C165.143 200.725 167.537 201.689 169.098 203.387L169.119 203.41L169.141 203.432C170.864 205.154 171.722 207.244 171.722 209.796C171.722 212.71 170.961 215.004 169.534 216.788L169.522 216.802L169.511 216.817C168.136 218.627 165.798 220.299 162.324 221.753L162.318 221.755L148.352 227.669C148.351 227.669 148.351 227.669 148.351 227.669C143.488 229.717 139.462 231.959 136.309 234.412L136.301 234.418L136.293 234.424C133.193 236.905 130.856 239.812 129.323 243.15ZM230.578 274.84L230.587 274.844L230.596 274.848C236.12 277.303 242.716 278.501 250.334 278.501C257.952 278.501 264.547 277.303 270.072 274.848L270.081 274.844L270.09 274.84C275.564 272.32 280.037 268.91 283.47 264.598C286.952 260.245 289.515 255.288 291.162 249.74L291.164 249.734C292.8 244.138 293.615 238.29 293.615 232.198V224.898C293.615 216.325 292.071 208.521 288.955 201.51C285.818 194.452 281.013 188.815 274.562 184.629C268.131 180.401 260.021 178.344 250.334 178.344C240.644 178.344 232.496 180.402 225.984 184.626C219.531 188.812 214.724 194.45 211.587 201.51C208.471 208.521 206.927 216.325 206.927 224.898V232.198C206.927 238.29 207.742 244.138 209.378 249.734L209.38 249.74C211.027 255.288 213.59 260.245 217.072 264.598L217.076 264.603L217.081 264.609C220.595 268.914 225.105 272.32 230.578 274.84ZM262.837 208.789L262.841 208.795L262.845 208.801C265.654 212.597 267.207 219.11 267.207 228.674C267.207 237.623 265.706 243.966 262.944 247.956C260.254 251.841 256.146 253.854 250.334 253.854C244.529 253.854 240.372 251.845 237.597 247.954C234.832 243.875 233.334 237.445 233.334 228.422C233.334 219.033 234.885 212.6 237.697 208.801L237.701 208.795L237.705 208.789C240.479 204.965 244.603 202.99 250.334 202.99C255.973 202.99 260.058 204.959 262.837 208.789ZM306.049 243.15L306.045 243.158L306.042 243.167C304.597 246.416 303.899 250.155 303.899 254.348V272.484C303.899 274.417 305.466 275.984 307.399 275.984H370.349C372.282 275.984 373.849 274.417 373.849 272.484V256.348C373.849 254.415 372.282 252.848 370.349 252.848H329.82C329.898 251.734 330.245 250.936 330.772 250.351C331.588 249.543 332.894 248.721 334.795 247.929L334.802 247.926L348.771 242.011L348.781 242.007C357.447 238.269 363.893 233.999 367.963 229.133C372.088 224.2 374.101 217.966 374.101 210.551V209.041C374.101 203.256 372.696 198.034 369.86 193.419C367.098 188.702 363.012 185.035 357.671 182.406C352.372 179.671 345.917 178.344 338.371 178.344C330.73 178.344 324.183 179.717 318.797 182.543L318.788 182.547C313.515 185.36 309.479 189.252 306.729 194.219C304.297 198.612 302.959 203.543 302.691 208.981C302.592 210.99 304.228 212.555 306.14 212.555H324.793C326.766 212.555 328.195 210.973 328.39 209.225C328.661 206.806 329.483 204.934 330.791 203.513L330.801 203.502L330.811 203.491C332.371 201.727 334.793 200.725 338.371 200.725C341.869 200.725 344.263 201.689 345.824 203.387L345.845 203.41L345.867 203.432C347.59 205.154 348.448 207.244 348.448 209.796C348.448 212.71 347.687 215.004 346.26 216.788L346.249 216.802L346.237 216.817C344.862 218.627 342.524 220.299 339.05 221.753L339.044 221.755L325.078 227.669C320.214 229.717 316.189 231.959 313.035 234.412L313.027 234.418L313.019 234.424C309.919 236.905 307.583 239.812 306.049 243.15ZM398 204.5V272.484C398 274.417 399.567 275.984 401.5 275.984H420.907C422.84 275.984 424.407 274.417 424.407 272.484V184.612C424.407 182.679 422.84 181.112 420.907 181.112H384.384C382.451 181.112 380.884 182.679 380.884 184.612V201C380.884 202.933 382.451 204.5 384.384 204.5H398Z" stroke="white" stroke-width="3"/>
<path d="M262.913 47.55C262.134 49.2204 261.354 50.7795 260.352 52.1158C263.024 51.0022 265.252 49.3318 267.033 47.1046C264.918 45.3228 262.356 43.9865 259.461 43.4297C260.686 44.6547 261.8 45.991 262.913 47.55Z" fill="white"/>
<path d="M289.305 45.1002C286.299 42.873 282.178 41.6481 277.724 41.9821C273.381 42.4276 269.483 44.3207 267.033 47.1047C270.04 49.3319 274.16 50.5569 278.615 50.2228C282.958 49.8887 286.744 47.8842 289.305 45.1002Z" fill="white"/>
<path d="M289.417 33.7413C288.526 38.1957 289.195 42.4274 290.976 45.7682C293.983 43.4296 296.322 39.8661 297.324 35.4117C298.215 30.9573 297.547 26.7256 295.765 23.3848C292.758 25.7233 290.42 29.3982 289.417 33.7413Z" fill="white"/>
<path d="M285.297 52.0057C286.745 51.2262 288.415 50.4467 290.085 49.8899C291.422 51.1149 292.647 52.3398 293.649 53.6762C293.426 50.7808 292.535 47.9968 290.976 45.6582C288.749 47.3286 286.745 49.4445 285.297 52.0057Z" fill="white"/>
<path d="M277.835 9.57759C278.949 13.2525 281.51 16.7047 285.296 19.1546C289.082 21.4932 293.203 22.2727 296.878 21.6045C295.764 17.9296 293.203 14.4775 289.416 12.0275C285.63 9.68895 281.51 8.90943 277.835 9.57759Z" fill="white"/>
<path d="M300.441 23.8304C302.001 22.9396 303.56 22.16 305.119 21.7146C302.335 20.9351 299.551 20.9351 296.878 21.6032C297.546 24.3873 298.771 26.9485 300.776 29.1757C300.441 27.5053 300.33 25.7236 300.441 23.8304Z" fill="white"/>
<path d="M285.075 6.34754C283.404 6.12482 281.734 5.79074 279.952 5.23394C279.507 3.45217 279.284 1.67041 279.284 0C277.725 2.44993 276.945 5.23394 276.834 8.01795C279.729 8.24067 282.513 7.68387 285.075 6.34754Z" fill="white"/>
<path d="M276.944 8.01758C273.158 8.01758 269.149 9.57662 265.92 12.6947C262.69 15.7014 260.797 19.5991 260.352 23.3853C264.138 23.3853 268.147 21.8263 271.376 18.7082C274.606 15.7014 276.499 11.8038 276.944 8.01758Z" fill="white"/>
<path d="M259.795 15.5898C259.016 17.1489 258.125 18.5966 257.011 20.1556C255.229 19.9329 253.559 19.5988 252 19.042C253.782 21.3806 256.12 23.051 258.682 24.0532C259.684 21.4919 260.129 18.5966 259.795 15.5898Z" fill="white"/>
<path d="M267.256 45.2132C268.481 41.5383 268.37 37.1952 266.699 32.9635C265.029 28.7318 262.022 25.6137 258.681 24.0547C257.456 27.7296 257.568 32.0726 259.238 36.3043C260.908 40.4247 263.915 43.5428 267.256 45.2132Z" fill="white"/>
</svg>
