<svg width="557" height="279" viewBox="0 0 557 279" fill="none" xmlns="http://www.w3.org/2000/svg">
<path d="M2 143.388C0.895431 143.388 0 142.493 0 141.388V101.34C0 100.236 0.89543 99.3402 2 99.3402H30.5314C31.636 99.3402 32.5314 100.236 32.5314 101.34V107.282C32.5314 108.387 31.6359 109.282 30.5314 109.282H13.3262C12.2216 109.282 11.3262 110.178 11.3262 111.282V141.388C11.3262 142.493 10.4308 143.388 9.32621 143.388H2Z" fill="white"/>
<path d="M49.5374 130.3C51.7607 132.649 54.5293 133.823 57.8433 133.823C61.1572 133.823 63.9049 132.649 66.0862 130.3C68.3095 127.95 69.4212 124.972 69.4212 121.364C69.4212 117.756 68.3095 114.778 66.0862 112.429C63.9049 110.08 61.1572 108.905 57.8433 108.905C54.5293 108.905 51.7607 110.08 49.5374 112.429C47.3561 114.778 46.2654 117.756 46.2654 121.364C46.2654 124.972 47.3561 127.95 49.5374 130.3ZM74.4551 137.599C70.0504 142.046 64.5132 144.269 57.8433 144.269C51.1734 144.269 45.6361 142.046 41.2315 137.599C36.8269 133.152 34.6246 127.741 34.6246 121.364C34.6246 114.988 36.8269 109.576 41.2315 105.129C45.6361 100.683 51.1734 98.4593 57.8433 98.4593C64.5132 98.4593 70.0504 100.683 74.4551 105.129C78.8597 109.576 81.062 114.988 81.062 121.364C81.062 127.741 78.8597 133.152 74.4551 137.599Z" fill="white"/>
<path d="M84.0039 151.946C82.8993 151.946 82.0039 151.051 82.0039 149.946V135.446C82.0039 134.341 82.8993 133.446 84.0039 133.446H85.0888C85.7906 133.446 86.4464 133.082 86.7765 132.463C89.7612 126.863 91.2536 118.465 91.2536 107.269V101.34C91.2536 100.236 92.149 99.3402 93.2536 99.3402H122.1C123.204 99.3402 124.1 100.236 124.1 101.34V131.446C124.1 132.55 124.995 133.446 126.1 133.446H127.889C128.993 133.446 129.889 134.341 129.889 135.446V149.946C129.889 151.051 128.993 151.946 127.889 151.946H121.192C120.087 151.946 119.192 151.051 119.192 149.946V145.388C119.192 144.284 118.296 143.388 117.192 143.388H94.6379C93.5334 143.388 92.6379 144.284 92.6379 145.388V149.946C92.6379 151.051 91.7425 151.946 90.6379 151.946H84.0039ZM99.5054 130.7C99.0864 132.038 100.058 133.446 101.461 133.446H110.773C111.878 133.446 112.773 132.55 112.773 131.446V111.282C112.773 110.178 111.878 109.282 110.773 109.282H104.482C103.391 109.282 102.504 110.158 102.466 111.248C102.207 118.738 101.22 125.221 99.5054 130.7Z" fill="white"/>
<path d="M149.268 130.3C151.492 132.649 154.26 133.823 157.574 133.823C160.888 133.823 163.636 132.649 165.817 130.3C168.041 127.95 169.152 124.972 169.152 121.364C169.152 117.756 168.041 114.778 165.817 112.429C163.636 110.08 160.888 108.905 157.574 108.905C154.26 108.905 151.492 110.08 149.268 112.429C147.087 114.778 145.996 117.756 145.996 121.364C145.996 124.972 147.087 127.95 149.268 130.3ZM174.186 137.599C169.781 142.046 164.244 144.269 157.574 144.269C150.904 144.269 145.367 142.046 140.963 137.599C136.558 133.152 134.356 127.741 134.356 121.364C134.356 114.988 136.558 109.576 140.963 105.129C145.367 100.683 150.904 98.4593 157.574 98.4593C164.244 98.4593 169.781 100.683 174.186 105.129C178.591 109.576 180.793 114.988 180.793 121.364C180.793 127.741 178.591 133.152 174.186 137.599Z" fill="white"/>
<path d="M189.848 143.388C188.744 143.388 187.848 142.493 187.848 141.388V101.34C187.848 100.236 188.744 99.3402 189.848 99.3402H209.305C213.332 99.3402 216.625 100.305 219.184 102.235C221.743 104.123 223.023 106.87 223.023 110.478C223.023 112.659 222.498 114.484 221.449 115.953V115.953C220.535 117.196 220.894 120.202 222.058 121.217C222.608 121.697 223.139 122.249 223.652 122.874C225.372 124.972 226.232 127.594 226.232 130.74C226.232 134.516 224.784 137.578 221.89 139.927C219.037 142.234 215.241 143.388 210.501 143.388H189.848ZM199.175 131.949C199.175 133.054 200.07 133.949 201.175 133.949H208.298C210.018 133.949 211.361 133.551 212.326 132.754C213.332 131.915 213.836 130.761 213.836 129.293C213.836 127.825 213.332 126.671 212.326 125.832C211.361 124.993 210.018 124.573 208.298 124.573H201.175C200.07 124.573 199.175 125.469 199.175 126.573V131.949ZM199.175 114.204C199.175 115.309 200.07 116.204 201.175 116.204H207.606C208.991 116.204 210.081 115.869 210.878 115.197C211.717 114.526 212.137 113.603 212.137 112.429C212.137 111.212 211.717 110.268 210.878 109.597C210.081 108.884 208.991 108.527 207.606 108.527H201.175C200.07 108.527 199.175 109.423 199.175 110.527V114.204Z" fill="white"/>
<path d="M245.251 130.3C247.474 132.649 250.243 133.823 253.557 133.823C256.871 133.823 259.619 132.649 261.8 130.3C264.023 127.95 265.135 124.972 265.135 121.364C265.135 117.756 264.023 114.778 261.8 112.429C259.619 110.08 256.871 108.905 253.557 108.905C250.243 108.905 247.474 110.08 245.251 112.429C243.07 114.778 241.979 117.756 241.979 121.364C241.979 124.972 243.07 127.95 245.251 130.3ZM270.169 137.599C265.764 142.046 260.227 144.269 253.557 144.269C246.887 144.269 241.35 142.046 236.945 137.599C232.541 133.152 230.338 127.741 230.338 121.364C230.338 114.988 232.541 109.576 236.945 105.129C241.35 100.683 246.887 98.4593 253.557 98.4593C260.227 98.4593 265.764 100.683 270.169 105.129C274.573 109.576 276.776 114.988 276.776 121.364C276.776 127.741 274.573 133.152 270.169 137.599Z" fill="white"/>
<path d="M285.831 143.388C284.726 143.388 283.831 142.493 283.831 141.388V101.34C283.831 100.236 284.726 99.3402 285.831 99.3402H293.157C294.262 99.3402 295.157 100.236 295.157 101.34V118.075C295.157 120.009 297.629 120.817 298.771 119.256L312.743 100.159C313.119 99.6445 313.719 99.3402 314.357 99.3402H321.158C322.263 99.3402 323.158 100.236 323.158 101.34V141.388C323.158 142.493 322.263 143.388 321.158 143.388H313.832C312.727 143.388 311.832 142.493 311.832 141.388V124.367C311.832 122.436 309.367 121.626 308.222 123.18L293.932 142.574C293.555 143.086 292.957 143.388 292.322 143.388H285.831ZM311.895 94.1174C309.672 96.0891 306.861 97.0749 303.463 97.0749C300.065 97.0749 297.255 96.0891 295.031 94.1174C293.268 92.5533 292.177 90.5273 291.76 88.0393C291.574 86.9311 292.496 86 293.62 86H297.252C298.33 86 299.142 86.898 299.601 87.8733C299.781 88.2573 300.02 88.5978 300.317 88.8946C301.072 89.6077 302.1 89.9643 303.4 89.9643C304.701 89.9643 305.707 89.6077 306.421 88.8946C306.736 88.5963 306.99 88.254 307.181 87.8677C307.659 86.9016 308.471 86 309.548 86H313.306C314.43 86 315.352 86.9311 315.166 88.0393C314.749 90.5273 313.659 92.5533 311.895 94.1174Z" fill="white"/>
<path d="M360.959 130.3C363.182 132.649 365.951 133.823 369.265 133.823C372.579 133.823 375.326 132.649 377.508 130.3C379.731 127.95 380.843 124.972 380.843 121.364C380.843 117.756 379.731 114.778 377.508 112.429C375.326 110.08 372.579 108.905 369.265 108.905C365.951 108.905 363.182 110.08 360.959 112.429C358.778 114.778 357.687 117.756 357.687 121.364C357.687 124.972 358.778 127.95 360.959 130.3ZM385.877 137.599C381.472 142.046 375.935 144.269 369.265 144.269C362.595 144.269 357.058 142.046 352.653 137.599C348.248 133.152 346.046 127.741 346.046 121.364C346.046 114.988 348.248 109.576 352.653 105.129C357.058 100.683 362.595 98.4593 369.265 98.4593C375.935 98.4593 381.472 100.683 385.877 105.129C390.281 109.576 392.483 114.988 392.483 121.364C392.483 127.741 390.281 133.152 385.877 137.599Z" fill="white"/>
<path d="M409.042 143.388C407.937 143.388 407.042 142.493 407.042 141.388V111.282C407.042 110.178 406.146 109.282 405.042 109.282H395.828C394.723 109.282 393.828 108.387 393.828 107.282V101.34C393.828 100.236 394.723 99.3402 395.828 99.3402H429.645C430.749 99.3402 431.645 100.236 431.645 101.34V107.282C431.645 108.387 430.749 109.282 429.645 109.282H420.368C419.264 109.282 418.368 110.178 418.368 111.282V141.388C418.368 142.493 417.473 143.388 416.368 143.388H409.042Z" fill="white"/>
<path d="M463.485 143.388C462.38 143.388 461.485 142.493 461.485 141.388V130.199C461.485 128.847 460.166 127.88 458.839 128.138C457.039 128.488 455.111 128.664 453.053 128.664C447.726 128.664 443.615 127.405 440.72 124.888C437.826 122.329 436.378 118.679 436.378 113.939V101.34C436.378 100.236 437.274 99.3402 438.378 99.3402H445.705C446.809 99.3402 447.705 100.236 447.705 101.34V112.303C447.705 116.372 449.928 118.407 454.375 118.407C456.703 118.407 458.711 118.071 460.396 117.4C461.083 117.127 461.485 116.435 461.485 115.696V101.34C461.485 100.236 462.38 99.3402 463.485 99.3402H470.811C471.916 99.3402 472.811 100.236 472.811 101.34V141.388C472.811 142.493 471.916 143.388 470.811 143.388H463.485Z" fill="white"/>
<path d="M483.265 143.388C482.161 143.388 481.265 142.493 481.265 141.388V101.34C481.265 100.236 482.161 99.3402 483.265 99.3402H512.741C513.845 99.3402 514.741 100.236 514.741 101.34V107.282C514.741 108.387 513.845 109.282 512.741 109.282H494.592C493.487 109.282 492.592 110.178 492.592 111.282V113.26C492.592 114.365 493.487 115.26 494.592 115.26H508.21C509.315 115.26 510.21 116.156 510.21 117.26V122.825C510.21 123.93 509.315 124.825 508.21 124.825H494.592C493.487 124.825 492.592 125.72 492.592 126.825V131.446C492.592 132.55 493.487 133.446 494.592 133.446H513.244C514.349 133.446 515.244 134.341 515.244 135.446V141.388C515.244 142.493 514.349 143.388 513.244 143.388H483.265Z" fill="white"/>
<path d="M534.397 143.388C533.292 143.388 532.397 142.493 532.397 141.388V111.282C532.397 110.178 531.502 109.282 530.397 109.282H521.183C520.079 109.282 519.183 108.387 519.183 107.282V101.34C519.183 100.236 520.079 99.3402 521.183 99.3402H555C556.105 99.3402 557 100.236 557 101.34V107.282C557 108.387 556.105 109.282 555 109.282H545.723C544.619 109.282 543.723 110.178 543.723 111.282V141.388C543.723 142.493 542.828 143.388 541.723 143.388H534.397Z" fill="white"/>
<path d="M130.005 243.463L130.005 243.463L130.001 243.472C128.607 246.606 127.923 250.238 127.923 254.348V271.484C127.923 273.555 129.601 275.234 131.673 275.234H192.623C194.694 275.234 196.373 273.555 196.373 271.484V257.348C196.373 255.277 194.694 253.598 192.623 253.598H152.327V253.341C152.327 251.813 152.741 250.67 153.503 249.832C154.414 248.926 155.822 248.053 157.78 247.237L157.784 247.235L171.753 241.32L171.757 241.318C180.369 237.603 186.696 233.392 190.661 228.652C194.653 223.878 196.625 217.825 196.625 210.551V209.041C196.625 203.38 195.251 198.294 192.491 193.805C189.809 189.223 185.837 185.649 180.607 183.075C175.441 180.408 169.109 179.094 161.644 179.094C154.09 179.094 147.671 180.452 142.419 183.207L142.419 183.207L142.414 183.209C137.261 185.958 133.335 189.749 130.659 194.583C128.44 198.591 127.149 203.068 126.777 208.001C126.617 210.126 128.36 211.805 130.414 211.805H147.066C149.168 211.805 150.714 210.103 151.055 208.201C151.434 206.089 152.259 204.368 153.513 203.005L153.518 202.999L153.523 202.994C155.268 201.021 157.926 199.975 161.644 199.975C165.281 199.975 167.904 200.981 169.65 202.879L169.661 202.89L169.672 202.901C171.54 204.77 172.472 207.052 172.472 209.796C172.472 212.847 171.672 215.316 170.12 217.256L170.114 217.264L170.108 217.271C168.624 219.225 166.154 220.962 162.613 222.445L162.61 222.446L148.643 228.36C143.82 230.391 139.857 232.603 136.77 235.004L136.77 235.004L136.762 235.01C133.743 237.425 131.484 240.242 130.005 243.463ZM230.892 274.158L230.892 274.158L230.901 274.162C236.306 276.565 242.791 277.751 250.334 277.751C257.876 277.751 264.362 276.565 269.767 274.162L269.776 274.158C275.156 271.682 279.532 268.341 282.885 264.129C286.304 259.855 288.822 254.985 290.443 249.527L290.444 249.524C292.059 243.999 292.865 238.223 292.865 232.198V224.898C292.865 216.417 291.338 208.718 288.27 201.815C285.191 194.887 280.481 189.363 274.151 185.256C267.873 181.129 259.917 179.094 250.334 179.094C240.749 179.094 232.752 181.13 226.392 185.255C220.061 189.362 215.351 194.887 212.272 201.815C209.204 208.718 207.677 216.417 207.677 224.898V232.198C207.677 238.223 208.483 243.999 210.098 249.524L210.099 249.527C211.719 254.985 214.238 259.855 217.657 264.129L217.662 264.135C221.097 268.343 225.512 271.682 230.892 274.158ZM263.444 208.349L263.448 208.355C266.405 212.35 267.957 219.068 267.957 228.674C267.957 237.679 266.452 244.207 263.56 248.383C260.705 252.507 256.344 254.604 250.334 254.604C244.327 254.604 239.92 252.509 236.981 248.382C234.089 244.119 232.584 237.506 232.584 228.422C232.584 218.987 234.136 212.352 237.094 208.355L237.098 208.349C240.037 204.297 244.406 202.24 250.334 202.24C256.174 202.24 260.503 204.294 263.444 208.349ZM306.731 243.463L306.727 243.472C305.334 246.606 304.649 250.238 304.649 254.348V271.484C304.649 273.555 306.328 275.234 308.399 275.234H369.349C371.42 275.234 373.099 273.555 373.099 271.484V257.348C373.099 255.277 371.42 253.598 369.349 253.598H329.053V253.341C329.053 251.813 329.467 250.67 330.229 249.832C331.14 248.926 332.548 248.053 334.506 247.237L334.51 247.235L348.479 241.32L348.484 241.318C357.095 237.603 363.423 233.392 367.387 228.652C371.38 223.878 373.351 217.825 373.351 210.551V209.041C373.351 203.38 371.977 198.294 369.217 193.805C366.535 189.223 362.563 185.649 357.333 183.075C352.167 180.408 345.835 179.094 338.371 179.094C330.817 179.094 324.397 180.452 319.145 183.207L319.141 183.209C313.987 185.958 310.061 189.749 307.385 194.583C305.166 198.591 303.875 203.068 303.503 208.001C303.343 210.126 305.086 211.805 307.14 211.805H323.793C325.894 211.805 327.44 210.103 327.781 208.201C328.16 206.089 328.985 204.368 330.239 203.005L330.244 202.999L330.249 202.994C331.994 201.021 334.652 199.975 338.371 199.975C342.008 199.975 344.631 200.981 346.376 202.879L346.387 202.89L346.398 202.901C348.266 204.77 349.198 207.052 349.198 209.796C349.198 212.847 348.398 215.316 346.846 217.256L346.84 217.264L346.834 217.271C345.35 219.225 342.88 220.962 339.339 222.445L339.337 222.446L325.369 228.36C320.546 230.391 316.583 232.603 313.496 235.004L313.488 235.01C310.469 237.425 308.211 240.242 306.731 243.463ZM398.75 203.75V271.484C398.75 273.555 400.428 275.234 402.5 275.234H419.907C421.978 275.234 423.657 273.555 423.657 271.484V185.612C423.657 183.541 421.978 181.862 419.907 181.862H385.384C383.313 181.862 381.634 183.541 381.634 185.612V200C381.634 202.071 383.313 203.75 385.384 203.75H398.75Z" stroke="white" stroke-width="1.5"/>
<path d="M262.913 47.55C262.134 49.2204 261.354 50.7795 260.352 52.1158C263.024 51.0022 265.252 49.3318 267.033 47.1046C264.918 45.3228 262.356 43.9865 259.461 43.4297C260.686 44.6547 261.8 45.991 262.913 47.55Z" fill="white"/>
<path d="M289.305 45.1002C286.299 42.873 282.178 41.6481 277.724 41.9821C273.381 42.4276 269.483 44.3207 267.033 47.1047C270.04 49.3319 274.16 50.5569 278.615 50.2228C282.958 49.8887 286.744 47.8842 289.305 45.1002Z" fill="white"/>
<path d="M289.417 33.7413C288.526 38.1957 289.195 42.4274 290.976 45.7682C293.983 43.4296 296.322 39.8661 297.324 35.4117C298.215 30.9573 297.547 26.7256 295.765 23.3848C292.758 25.7233 290.42 29.3982 289.417 33.7413Z" fill="white"/>
<path d="M285.297 52.0057C286.745 51.2262 288.415 50.4467 290.085 49.8899C291.422 51.1149 292.647 52.3398 293.649 53.6762C293.426 50.7808 292.535 47.9968 290.976 45.6582C288.749 47.3286 286.745 49.4445 285.297 52.0057Z" fill="white"/>
<path d="M277.835 9.57759C278.949 13.2525 281.51 16.7047 285.296 19.1546C289.082 21.4932 293.203 22.2727 296.878 21.6045C295.764 17.9296 293.203 14.4775 289.416 12.0275C285.63 9.68895 281.51 8.90943 277.835 9.57759Z" fill="white"/>
<path d="M300.441 23.8304C302.001 22.9396 303.56 22.16 305.119 21.7146C302.335 20.9351 299.551 20.9351 296.878 21.6032C297.546 24.3873 298.771 26.9485 300.776 29.1757C300.441 27.5053 300.33 25.7236 300.441 23.8304Z" fill="white"/>
<path d="M285.075 6.34754C283.404 6.12482 281.734 5.79074 279.952 5.23394C279.507 3.45217 279.284 1.67041 279.284 0C277.725 2.44993 276.945 5.23394 276.834 8.01795C279.729 8.24067 282.513 7.68387 285.075 6.34754Z" fill="white"/>
<path d="M276.944 8.01758C273.158 8.01758 269.149 9.57662 265.92 12.6947C262.69 15.7014 260.797 19.5991 260.352 23.3853C264.138 23.3853 268.147 21.8263 271.376 18.7082C274.606 15.7014 276.499 11.8038 276.944 8.01758Z" fill="white"/>
<path d="M259.795 15.5898C259.016 17.1489 258.125 18.5966 257.011 20.1556C255.229 19.9329 253.559 19.5988 252 19.042C253.782 21.3806 256.12 23.051 258.682 24.0532C259.684 21.4919 260.129 18.5966 259.795 15.5898Z" fill="white"/>
<path d="M267.256 45.2132C268.481 41.5383 268.37 37.1952 266.699 32.9635C265.029 28.7318 262.022 25.6137 258.681 24.0547C257.456 27.7296 257.568 32.0726 259.238 36.3043C260.908 40.4247 263.915 43.5428 267.256 45.2132Z" fill="white"/>
</svg>
